<?xml version="1.0" encoding="utf-8"?>
<!-- Generator: Adobe Illustrator 16.0.0, SVG Export Plug-In . SVG Version: 6.00 Build 0)  -->
<!DOCTYPE svg PUBLIC "-//W3C//DTD SVG 1.1//EN" "http://www.w3.org/Graphics/SVG/1.1/DTD/svg11.dtd">
<svg version="1.1" id="Layer_1" xmlns="http://www.w3.org/2000/svg" xmlns:xlink="http://www.w3.org/1999/xlink" x="0px" y="0px"
	 width="566.93px" height="847.559px" viewBox="0 0 566.93 847.559" enable-background="new 0 0 566.93 847.559"
	 xml:space="preserve">
<g id="surface168">
	<path fill="#FFFFFF" stroke="#FFFFFF" stroke-width="0.2" stroke-linecap="square" stroke-miterlimit="3.25" d="M465.213,316.369
		l-39.209-29.55l8.471,29.55H465.213z"/>
	<path fill="none" stroke="#000000" stroke-width="0.2" stroke-linecap="square" stroke-miterlimit="3.25" d="M465.213,316.369
		l-39.209-29.55l8.471,29.55H465.213z"/>
	<path fill="#FFFFFF" stroke="#FFFFFF" stroke-width="0.2" stroke-linecap="square" stroke-miterlimit="3.25" d="M426.004,286.819
		l-17.605,45.832l26.074-16.281L426.004,286.819z"/>
	<path fill="none" stroke="#000000" stroke-width="0.2" stroke-linecap="square" stroke-miterlimit="3.25" d="M426.004,286.819
		l-17.605,45.832l26.074-16.281L426.004,286.819z"/>
	<path fill="#FFFFFF" stroke="#FFFFFF" stroke-width="0.2" stroke-linecap="square" stroke-miterlimit="3.25" d="M408.398,332.651
		l48.908,4.298l-22.834-20.579L408.398,332.651z"/>
	<path fill="none" stroke="#000000" stroke-width="0.2" stroke-linecap="square" stroke-miterlimit="3.25" d="M408.398,332.651
		l48.908,4.298l-22.834-20.579L408.398,332.651z"/>
	<path fill="none" stroke="#000000" stroke-linecap="square" stroke-miterlimit="3.25" d="M465.213,316.369
		c0-8.152-3.24-15.973-9.004-21.737c-5.764-5.765-13.584-9.003-21.736-9.003s-15.973,3.238-21.736,9.003
		c-5.766,5.764-9.004,13.584-9.004,21.737s3.238,15.973,9.004,21.738c5.766,5.763,13.584,9.001,21.736,9.001
		s15.973-3.238,21.736-9.001C461.972,332.342,465.213,324.522,465.213,316.369z"/>
</g>
<g id="surface168_2_">
	<path fill="#FFFFFF" stroke="#FFFFFF" stroke-width="0.2" stroke-linecap="square" stroke-miterlimit="3.25" d="M521.359,120.887
		L403.732,32.236l25.408,88.651H521.359z"/>
	<path fill="none" stroke="#000000" stroke-width="0.2" stroke-linecap="square" stroke-miterlimit="3.25" d="M521.359,120.887
		L403.732,32.236l25.408,88.651H521.359z"/>
	<path fill="#FFFFFF" stroke="#FFFFFF" stroke-width="0.2" stroke-linecap="square" stroke-miterlimit="3.25" d="M403.732,32.236
		L350.916,169.73l78.225-48.843L403.732,32.236z"/>
	<path fill="none" stroke="#000000" stroke-width="0.2" stroke-linecap="square" stroke-miterlimit="3.25" d="M403.732,32.236
		L350.916,169.73l78.225-48.843L403.732,32.236z"/>
	<path fill="#FFFFFF" stroke="#FFFFFF" stroke-width="0.2" stroke-linecap="square" stroke-miterlimit="3.25" d="M350.916,169.73
		l146.729,12.894l-68.504-61.737L350.916,169.73z"/>
	<path fill="none" stroke="#000000" stroke-width="0.2" stroke-linecap="square" stroke-miterlimit="3.25" d="M350.916,169.73
		l146.729,12.894l-68.504-61.737L350.916,169.73z"/>
	<path fill="none" stroke="#000000" stroke-linecap="square" stroke-miterlimit="3.25" d="M521.359,120.887
		c0-24.457-9.719-47.918-27.012-65.21c-17.291-17.295-40.752-27.009-65.207-27.009c-24.459,0-47.914,9.713-65.211,27.009
		c-17.295,17.292-27.012,40.753-27.012,65.21s9.717,47.917,27.012,65.214c17.297,17.288,40.752,27.003,65.211,27.003
		c24.455,0,47.916-9.715,65.207-27.003C511.64,168.804,521.359,145.344,521.359,120.887z"/>
</g>
<g id="surface168_3_">
	<path fill="#FFFFFF" stroke="#FFFFFF" stroke-width="0.2" stroke-linecap="square" stroke-miterlimit="3.25" d="M331.17,182.626
		L135.124,34.873l42.349,147.753H331.17z"/>
	<path fill="none" stroke="#000000" stroke-width="0.2" stroke-linecap="square" stroke-miterlimit="3.25" d="M331.17,182.626
		L135.124,34.873l42.349,147.753H331.17z"/>
	<path fill="#FFFFFF" stroke="#FFFFFF" stroke-width="0.2" stroke-linecap="square" stroke-miterlimit="3.25" d="M135.124,34.873
		L47.095,264.032l130.377-81.406L135.124,34.873z"/>
	<path fill="none" stroke="#000000" stroke-width="0.2" stroke-linecap="square" stroke-miterlimit="3.25" d="M135.124,34.873
		L47.095,264.032l130.377-81.406L135.124,34.873z"/>
	<path fill="#FFFFFF" stroke="#FFFFFF" stroke-width="0.2" stroke-linecap="square" stroke-miterlimit="3.25" d="M47.095,264.032
		l244.549,21.489L177.472,182.626L47.095,264.032z"/>
	<path fill="none" stroke="#000000" stroke-width="0.2" stroke-linecap="square" stroke-miterlimit="3.25" d="M47.095,264.032
		l244.549,21.489L177.472,182.626L47.095,264.032z"/>
	<path fill="none" stroke="#000000" stroke-linecap="square" stroke-miterlimit="3.25" d="M331.17,182.626
		c0-40.762-16.195-79.864-45.02-108.685c-28.819-28.826-67.92-45.015-108.678-45.015c-40.767,0-79.858,16.189-108.687,45.015
		c-28.824,28.821-45.021,67.923-45.021,108.685c0,40.761,16.196,79.863,45.021,108.691c28.828,28.813,67.92,45.005,108.687,45.005
		c40.757,0,79.859-16.191,108.678-45.005C314.974,262.489,331.17,223.387,331.17,182.626z"/>
</g>
<g id="surface168_1_">
	<path fill="#FFFFFF" stroke="#FFFFFF" stroke-width="0.2" stroke-linecap="square" stroke-miterlimit="3.25" d="M472.549,613.367
		L198.086,406.514l59.289,206.853H472.549L472.549,613.367z"/>
	<path fill="none" stroke="#000000" stroke-width="0.2" stroke-linecap="square" stroke-miterlimit="3.25" d="M472.549,613.367
		L198.086,406.514l59.289,206.853H472.549L472.549,613.367z"/>
	<path fill="#FFFFFF" stroke="#FFFFFF" stroke-width="0.2" stroke-linecap="square" stroke-miterlimit="3.25" d="M198.086,406.514
		L74.847,727.334l182.527-113.967L198.086,406.514z"/>
	<path fill="none" stroke="#000000" stroke-width="0.2" stroke-linecap="square" stroke-miterlimit="3.25" d="M198.086,406.514
		L74.847,727.334l182.527-113.967L198.086,406.514z"/>
	<path fill="#FFFFFF" stroke="#FFFFFF" stroke-width="0.2" stroke-linecap="square" stroke-miterlimit="3.25" d="M74.847,727.334
		l342.365,30.084L257.374,613.367L74.847,727.334z"/>
	<path fill="none" stroke="#000000" stroke-width="0.2" stroke-linecap="square" stroke-miterlimit="3.25" d="M74.847,727.334
		l342.365,30.084L257.374,613.367L74.847,727.334z"/>
	<path fill="none" stroke="#000000" stroke-linecap="square" stroke-miterlimit="3.25" d="M472.549,613.367
		c0-57.066-22.674-111.811-63.027-152.158c-40.346-40.356-95.088-63.021-152.147-63.021c-57.074,0-111.801,22.665-152.161,63.021
		c-40.354,40.348-63.027,95.092-63.027,152.158c0,57.063,22.675,111.807,63.027,152.164c40.359,40.34,95.087,63.008,152.161,63.008
		c57.061,0,111.801-22.668,152.147-63.008C449.875,725.174,472.549,670.43,472.549,613.367z"/>
</g>
</svg>
