<?xml version="1.0" encoding="UTF-8" standalone="no"?>
<!-- Generator: Adobe Illustrator 16.0.0, SVG Export Plug-In . SVG Version: 6.00 Build 0)  -->

<svg
   xmlns:dc="http://purl.org/dc/elements/1.1/"
   xmlns:cc="http://creativecommons.org/ns#"
   xmlns:rdf="http://www.w3.org/1999/02/22-rdf-syntax-ns#"
   xmlns:svg="http://www.w3.org/2000/svg"
   xmlns="http://www.w3.org/2000/svg"
   xmlns:sodipodi="http://sodipodi.sourceforge.net/DTD/sodipodi-0.dtd"
   xmlns:inkscape="http://www.inkscape.org/namespaces/inkscape"
   version="1.1"
   id="Layer_1"
   x="0px"
   y="0px"
   width="210mm"
   height="297mm"
   viewBox="0 0 793.7008 1122.5197"
   enable-background="new 0 0 566.93 847.559"
   xml:space="preserve"
   sodipodi:docname="R.svg"
   inkscape:version="0.92.4 (5da689c313, 2019-01-14)"><metadata
   id="metadata67"><rdf:RDF><cc:Work
       rdf:about=""><dc:format>image/svg+xml</dc:format><dc:type
         rdf:resource="http://purl.org/dc/dcmitype/StillImage" /><dc:title></dc:title></cc:Work></rdf:RDF></metadata><defs
   id="defs65" /><sodipodi:namedview
   pagecolor="#ffffff"
   bordercolor="#666666"
   borderopacity="1"
   objecttolerance="10"
   gridtolerance="10"
   guidetolerance="10"
   inkscape:pageopacity="0"
   inkscape:pageshadow="2"
   inkscape:window-width="1920"
   inkscape:window-height="1057"
   id="namedview63"
   showgrid="false"
   units="mm"
   inkscape:document-units="cm"
   inkscape:zoom="0.98979095"
   inkscape:cx="283.465"
   inkscape:cy="392.47916"
   inkscape:window-x="-8"
   inkscape:window-y="-8"
   inkscape:window-maximized="1"
   inkscape:current-layer="Layer_1" />
<g
   id="surface168"
   transform="matrix(1.3120006,0,0,1.3120006,97.470555,-41.617979)">
	<path
   stroke-miterlimit="3.25"
   d="m 465.213,316.369 -39.209,-29.55 8.471,29.55 z"
   id="path2"
   inkscape:connector-curvature="0"
   style="fill:#ffffff;stroke:#ffffff;stroke-width:0.2;stroke-linecap:square;stroke-miterlimit:3.25" />
	<path
   stroke-miterlimit="3.25"
   d="m 465.213,316.369 -39.209,-29.55 8.471,29.55 z"
   id="path4"
   inkscape:connector-curvature="0"
   style="fill:none;stroke:#000000;stroke-width:0.2;stroke-linecap:square;stroke-miterlimit:3.25" />
	<path
   stroke-miterlimit="3.25"
   d="m 426.004,286.819 -17.605,45.832 26.074,-16.281 z"
   id="path6"
   inkscape:connector-curvature="0"
   style="fill:#ffffff;stroke:#ffffff;stroke-width:0.2;stroke-linecap:square;stroke-miterlimit:3.25" />
	<path
   stroke-miterlimit="3.25"
   d="m 426.004,286.819 -17.605,45.832 26.074,-16.281 z"
   id="path8"
   inkscape:connector-curvature="0"
   style="fill:none;stroke:#000000;stroke-width:0.2;stroke-linecap:square;stroke-miterlimit:3.25" />
	<path
   stroke-miterlimit="3.25"
   d="m 408.398,332.651 48.908,4.298 -22.834,-20.579 z"
   id="path10"
   inkscape:connector-curvature="0"
   style="fill:#ffffff;stroke:#ffffff;stroke-width:0.2;stroke-linecap:square;stroke-miterlimit:3.25" />
	<path
   stroke-miterlimit="3.25"
   d="m 408.398,332.651 48.908,4.298 -22.834,-20.579 z"
   id="path12"
   inkscape:connector-curvature="0"
   style="fill:none;stroke:#000000;stroke-width:0.2;stroke-linecap:square;stroke-miterlimit:3.25" />
	<path
   stroke-miterlimit="3.25"
   d="m 465.213,316.369 c 0,-8.152 -3.24,-15.973 -9.004,-21.737 -5.764,-5.765 -13.584,-9.003 -21.736,-9.003 -8.152,0 -15.973,3.238 -21.736,9.003 -5.766,5.764 -9.004,13.584 -9.004,21.737 0,8.153 3.238,15.973 9.004,21.738 5.766,5.763 13.584,9.001 21.736,9.001 8.152,0 15.973,-3.238 21.736,-9.001 5.763,-5.765 9.004,-13.585 9.004,-21.738 z"
   id="path14"
   inkscape:connector-curvature="0"
   style="fill:none;stroke:#000000;stroke-linecap:square;stroke-miterlimit:3.25" />
</g>
<g
   id="surface168_2_"
   transform="matrix(1.3261364,0,0,1.3261364,49.91184,-6.8693668)">
	<path
   stroke-miterlimit="3.25"
   d="M 521.359,120.887 403.732,32.236 429.14,120.887 Z"
   id="path17"
   inkscape:connector-curvature="0"
   style="fill:#ffffff;stroke:#ffffff;stroke-width:0.2;stroke-linecap:square;stroke-miterlimit:3.25" />
	<path
   stroke-miterlimit="3.25"
   d="M 521.359,120.887 403.732,32.236 429.14,120.887 Z"
   id="path19"
   inkscape:connector-curvature="0"
   style="fill:none;stroke:#000000;stroke-width:0.2;stroke-linecap:square;stroke-miterlimit:3.25" />
	<path
   stroke-miterlimit="3.25"
   d="M 403.732,32.236 350.916,169.73 429.141,120.887 Z"
   id="path21"
   inkscape:connector-curvature="0"
   style="fill:#ffffff;stroke:#ffffff;stroke-width:0.2;stroke-linecap:square;stroke-miterlimit:3.25" />
	<path
   stroke-miterlimit="3.25"
   d="M 403.732,32.236 350.916,169.73 429.141,120.887 Z"
   id="path23"
   inkscape:connector-curvature="0"
   style="fill:none;stroke:#000000;stroke-width:0.2;stroke-linecap:square;stroke-miterlimit:3.25" />
	<path
   stroke-miterlimit="3.25"
   d="m 350.916,169.73 146.729,12.894 -68.504,-61.737 z"
   id="path25"
   inkscape:connector-curvature="0"
   style="fill:#ffffff;stroke:#ffffff;stroke-width:0.2;stroke-linecap:square;stroke-miterlimit:3.25" />
	<path
   stroke-miterlimit="3.25"
   d="m 350.916,169.73 146.729,12.894 -68.504,-61.737 z"
   id="path27"
   inkscape:connector-curvature="0"
   style="fill:none;stroke:#000000;stroke-width:0.2;stroke-linecap:square;stroke-miterlimit:3.25" />
	<path
   stroke-miterlimit="3.25"
   d="m 521.359,120.887 c 0,-24.457 -9.719,-47.918 -27.012,-65.21 -17.291,-17.295 -40.752,-27.009 -65.207,-27.009 -24.459,0 -47.914,9.713 -65.211,27.009 -17.295,17.292 -27.012,40.753 -27.012,65.21 0,24.457 9.717,47.917 27.012,65.214 17.297,17.288 40.752,27.003 65.211,27.003 24.455,0 47.916,-9.715 65.207,-27.003 17.293,-17.297 27.012,-40.757 27.012,-65.214 z"
   id="path29"
   inkscape:connector-curvature="0"
   style="fill:none;stroke:#000000;stroke-linecap:square;stroke-miterlimit:3.25" />
</g>
<g
   id="surface168_3_"
   transform="matrix(1.3289977,0,0,1.3289977,39.830972,47.960848)">
	<path
   stroke-miterlimit="3.25"
   d="M 331.17,182.626 135.124,34.873 177.473,182.626 Z"
   id="path32"
   inkscape:connector-curvature="0"
   style="fill:#ffffff;stroke:#ffffff;stroke-width:0.2;stroke-linecap:square;stroke-miterlimit:3.25" />
	<path
   stroke-miterlimit="3.25"
   d="M 331.17,182.626 135.124,34.873 177.473,182.626 Z"
   id="path34"
   inkscape:connector-curvature="0"
   style="fill:none;stroke:#000000;stroke-width:0.2;stroke-linecap:square;stroke-miterlimit:3.25" />
	<path
   stroke-miterlimit="3.25"
   d="M 135.124,34.873 47.095,264.032 177.472,182.626 Z"
   id="path36"
   inkscape:connector-curvature="0"
   style="fill:#ffffff;stroke:#ffffff;stroke-width:0.2;stroke-linecap:square;stroke-miterlimit:3.25" />
	<path
   stroke-miterlimit="3.25"
   d="M 135.124,34.873 47.095,264.032 177.472,182.626 Z"
   id="path38"
   inkscape:connector-curvature="0"
   style="fill:none;stroke:#000000;stroke-width:0.2;stroke-linecap:square;stroke-miterlimit:3.25" />
	<path
   stroke-miterlimit="3.25"
   d="M 47.095,264.032 291.644,285.521 177.472,182.626 Z"
   id="path40"
   inkscape:connector-curvature="0"
   style="fill:#ffffff;stroke:#ffffff;stroke-width:0.2;stroke-linecap:square;stroke-miterlimit:3.25" />
	<path
   stroke-miterlimit="3.25"
   d="M 47.095,264.032 291.644,285.521 177.472,182.626 Z"
   id="path42"
   inkscape:connector-curvature="0"
   style="fill:none;stroke:#000000;stroke-width:0.2;stroke-linecap:square;stroke-miterlimit:3.25" />
	<path
   stroke-miterlimit="3.25"
   d="m 331.17,182.626 c 0,-40.762 -16.195,-79.864 -45.02,-108.685 -28.819,-28.826 -67.92,-45.015 -108.678,-45.015 -40.767,0 -79.858,16.189 -108.687,45.015 -28.824,28.821 -45.021,67.923 -45.021,108.685 0,40.761 16.196,79.863 45.021,108.691 28.828,28.813 67.92,45.005 108.687,45.005 40.757,0 79.859,-16.191 108.678,-45.005 28.824,-28.828 45.02,-67.93 45.02,-108.691 z"
   id="path44"
   inkscape:connector-curvature="0"
   style="fill:none;stroke:#000000;stroke-linecap:square;stroke-miterlimit:3.25" />
</g>
<g
   id="surface168_1_"
   transform="matrix(1.330241,0,0,1.330241,76.151219,-14.987064)">
	<path
   stroke-miterlimit="3.25"
   d="M 472.549,613.367 198.086,406.514 257.375,613.367 Z"
   id="path47"
   inkscape:connector-curvature="0"
   style="fill:#ffffff;stroke:#ffffff;stroke-width:0.2;stroke-linecap:square;stroke-miterlimit:3.25" />
	<path
   stroke-miterlimit="3.25"
   d="M 472.549,613.367 198.086,406.514 257.375,613.367 Z"
   id="path49"
   inkscape:connector-curvature="0"
   style="fill:none;stroke:#000000;stroke-width:0.2;stroke-linecap:square;stroke-miterlimit:3.25" />
	<path
   stroke-miterlimit="3.25"
   d="M 198.086,406.514 74.847,727.334 257.374,613.367 Z"
   id="path51"
   inkscape:connector-curvature="0"
   style="fill:#ffffff;stroke:#ffffff;stroke-width:0.2;stroke-linecap:square;stroke-miterlimit:3.25" />
	<path
   stroke-miterlimit="3.25"
   d="M 198.086,406.514 74.847,727.334 257.374,613.367 Z"
   id="path53"
   inkscape:connector-curvature="0"
   style="fill:none;stroke:#000000;stroke-width:0.2;stroke-linecap:square;stroke-miterlimit:3.25" />
	<path
   stroke-miterlimit="3.25"
   d="M 74.847,727.334 417.212,757.418 257.374,613.367 Z"
   id="path55"
   inkscape:connector-curvature="0"
   style="fill:#ffffff;stroke:#ffffff;stroke-width:0.2;stroke-linecap:square;stroke-miterlimit:3.25" />
	<path
   stroke-miterlimit="3.25"
   d="M 74.847,727.334 417.212,757.418 257.374,613.367 Z"
   id="path57"
   inkscape:connector-curvature="0"
   style="fill:none;stroke:#000000;stroke-width:0.2;stroke-linecap:square;stroke-miterlimit:3.25" />
	<path
   stroke-miterlimit="3.25"
   d="m 472.549,613.367 c 0,-57.066 -22.674,-111.811 -63.027,-152.158 -40.346,-40.356 -95.088,-63.021 -152.147,-63.021 -57.074,0 -111.801,22.665 -152.161,63.021 -40.354,40.348 -63.027,95.092 -63.027,152.158 0,57.063 22.675,111.807 63.027,152.164 40.359,40.34 95.087,63.008 152.161,63.008 57.061,0 111.801,-22.668 152.147,-63.008 40.353,-40.357 63.027,-95.101 63.027,-152.164 z"
   id="path59"
   inkscape:connector-curvature="0"
   style="fill:none;stroke:#000000;stroke-linecap:square;stroke-miterlimit:3.25" />
</g>
</svg>