<?xml version="1.0" encoding="utf-8"?>
<!-- Generator: Adobe Illustrator 16.0.0, SVG Export Plug-In . SVG Version: 6.00 Build 0)  -->
<!DOCTYPE svg PUBLIC "-//W3C//DTD SVG 1.1//EN" "http://www.w3.org/Graphics/SVG/1.1/DTD/svg11.dtd">
<svg version="1.1" id="Layer_1" xmlns="http://www.w3.org/2000/svg" xmlns:xlink="http://www.w3.org/1999/xlink" x="0px" y="0px"
	 width="566.929px" height="850.394px" viewBox="-103.464 -245.697 566.929 850.394"
	 enable-background="new -103.464 -245.697 566.929 850.394" xml:space="preserve">
<g id="surface100">
	<path fill="#FFFFFF" stroke="#FFFFFF" stroke-width="0.2" stroke-linecap="square" stroke-miterlimit="3.25" d="M433.364,179.21
		L403.744,60.208L179.5,179.21H433.364z"/>
	<path fill="none" stroke="#000000" stroke-width="0.2" stroke-linecap="square" stroke-miterlimit="3.25" d="M433.364,179.21
		L403.744,60.208L179.5,179.21H433.364z"/>
	<path fill="#FFFFFF" stroke="#FFFFFF" stroke-width="0.2" stroke-linecap="square" stroke-miterlimit="3.25" d="M403.744,60.208
		l-81.947-91.229L179.5,179.21L403.744,60.208z"/>
	<path fill="none" stroke="#000000" stroke-width="0.2" stroke-linecap="square" stroke-miterlimit="3.25" d="M403.744,60.208
		l-81.947-91.229L179.5,179.21L403.744,60.208z"/>
	<path fill="#FFFFFF" stroke="#FFFFFF" stroke-width="0.2" stroke-linecap="square" stroke-miterlimit="3.25" d="M321.797-31.021
		L206.645-73.198L179.5,179.21L321.797-31.021z"/>
	<path fill="none" stroke="#000000" stroke-width="0.2" stroke-linecap="square" stroke-miterlimit="3.25" d="M321.797-31.021
		L206.645-73.198L179.5,179.21L321.797-31.021z"/>
	<path fill="#FFFFFF" stroke="#FFFFFF" stroke-width="0.2" stroke-linecap="square" stroke-miterlimit="3.25" d="M206.645-73.198
		L85.157-56.469L179.5,179.21L206.645-73.198z"/>
	<path fill="none" stroke="#000000" stroke-width="0.2" stroke-linecap="square" stroke-miterlimit="3.25" d="M206.645-73.198
		L85.157-56.469L179.5,179.21L206.645-73.198z"/>
	<path fill="#FFFFFF" stroke="#FFFFFF" stroke-width="0.2" stroke-linecap="square" stroke-miterlimit="3.25" d="M85.157-56.469
		l-99.471,71.727L179.5,179.21L85.157-56.469z"/>
	<path fill="none" stroke="#000000" stroke-width="0.2" stroke-linecap="square" stroke-miterlimit="3.25" d="M85.157-56.469
		l-99.471,71.727L179.5,179.21L85.157-56.469z"/>
	<path fill="#FFFFFF" stroke="#FFFFFF" stroke-width="0.2" stroke-linecap="square" stroke-miterlimit="3.25" d="M-14.313,15.258
		l-54.244,109.984L179.5,179.21L-14.313,15.258z"/>
	<path fill="none" stroke="#000000" stroke-width="0.2" stroke-linecap="square" stroke-miterlimit="3.25" d="M-14.313,15.258
		l-54.244,109.984L179.5,179.21L-14.313,15.258z"/>
	<path fill="#FFFFFF" stroke="#FFFFFF" stroke-width="0.2" stroke-linecap="square" stroke-miterlimit="3.25" d="M-68.557,125.242
		l3.643,122.575L179.5,179.21L-68.557,125.242z"/>
	<path fill="none" stroke="#000000" stroke-width="0.2" stroke-linecap="square" stroke-miterlimit="3.25" d="M-68.557,125.242
		l3.643,122.575L179.5,179.21L-68.557,125.242z"/>
	<path fill="#FFFFFF" stroke="#FFFFFF" stroke-width="0.2" stroke-linecap="square" stroke-miterlimit="3.25" d="M-64.914,247.817
		L-4.237,354.39L179.5,179.21L-64.914,247.817z"/>
	<path fill="none" stroke="#000000" stroke-width="0.2" stroke-linecap="square" stroke-miterlimit="3.25" d="M-64.914,247.817
		L-4.237,354.39L179.5,179.21L-64.914,247.817z"/>
	<path fill="#FFFFFF" stroke="#FFFFFF" stroke-width="0.2" stroke-linecap="square" stroke-miterlimit="3.25" d="M-4.237,354.39
		l103.55,65.69L179.5,179.21L-4.237,354.39z"/>
	<path fill="none" stroke="#000000" stroke-width="0.2" stroke-linecap="square" stroke-miterlimit="3.25" d="M-4.237,354.39
		l103.55,65.69L179.5,179.21L-4.237,354.39z"/>
	<path fill="#FFFFFF" stroke="#FFFFFF" stroke-width="0.2" stroke-linecap="square" stroke-miterlimit="3.25" d="M99.314,420.08
		l122.265,9.483L179.5,179.21L99.314,420.08z"/>
	<path fill="none" stroke="#000000" stroke-width="0.2" stroke-linecap="square" stroke-miterlimit="3.25" d="M99.314,420.08
		l122.265,9.483L179.5,179.21L99.314,420.08z"/>
	<path fill="none" stroke="#000000" stroke-linecap="square" stroke-miterlimit="3.25" d="M433.364,179.21
		c0-67.324-26.747-131.898-74.356-179.507C311.399-47.906,246.83-74.648,179.5-74.648S47.602-47.906-0.007-0.297
		C-47.615,47.312-74.364,111.886-74.364,179.21c0,67.33,26.748,131.904,74.357,179.513c47.608,47.609,112.177,74.352,179.507,74.352
		s131.898-26.742,179.507-74.352C406.616,311.114,433.364,246.54,433.364,179.21z"/>
</g>
</svg>
