<?xml version="1.0" encoding="utf-8"?>
<!-- Generator: Adobe Illustrator 16.0.0, SVG Export Plug-In . SVG Version: 6.00 Build 0)  -->
<!DOCTYPE svg PUBLIC "-//W3C//DTD SVG 1.1//EN" "http://www.w3.org/Graphics/SVG/1.1/DTD/svg11.dtd">
<svg version="1.1" id="Layer_1" xmlns="http://www.w3.org/2000/svg" xmlns:xlink="http://www.w3.org/1999/xlink" x="0px" y="0px"
	 width="566.929px" height="850.394px" viewBox="-103.464 -245.697 566.929 850.394"
	 enable-background="new -103.464 -245.697 566.929 850.394" xml:space="preserve">
<g id="surface80">
	<path fill="#FFFFFF" stroke="#FFFFFF" stroke-width="0.2" stroke-linecap="square" stroke-miterlimit="3.25" d="M419.326,179.21
		L305.889-24.61L179.5,179.21H419.326z"/>
	<path fill="none" stroke="#000000" stroke-width="0.2" stroke-linecap="square" stroke-miterlimit="3.25" d="M419.326,179.21
		L305.889-24.61L179.5,179.21H419.326z"/>
	<path fill="#FFFFFF" stroke="#FFFFFF" stroke-width="0.2" stroke-linecap="square" stroke-miterlimit="3.25" d="M305.889-24.61
		L72.885-35.614L179.5,179.21L305.889-24.61z"/>
	<path fill="none" stroke="#000000" stroke-width="0.2" stroke-linecap="square" stroke-miterlimit="3.25" d="M305.889-24.61
		L72.885-35.614L179.5,179.21L305.889-24.61z"/>
	<path fill="#FFFFFF" stroke="#FFFFFF" stroke-width="0.2" stroke-linecap="square" stroke-miterlimit="3.25" d="M72.885-35.614
		L-59.261,156.61l238.761,22.6L72.885-35.614z"/>
	<path fill="none" stroke="#000000" stroke-width="0.2" stroke-linecap="square" stroke-miterlimit="3.25" d="M72.885-35.614
		L-59.261,156.61l238.761,22.6L72.885-35.614z"/>
	<path fill="#FFFFFF" stroke="#FFFFFF" stroke-width="0.2" stroke-linecap="square" stroke-miterlimit="3.25" d="M-59.261,156.61
		L34.47,370.217L179.5,179.21L-59.261,156.61z"/>
	<path fill="none" stroke="#000000" stroke-width="0.2" stroke-linecap="square" stroke-miterlimit="3.25" d="M-59.261,156.61
		L34.47,370.217L179.5,179.21L-59.261,156.61z"/>
	<path fill="#FFFFFF" stroke="#FFFFFF" stroke-width="0.2" stroke-linecap="square" stroke-miterlimit="3.25" d="M34.47,370.217
		l230.928,32.913L179.5,179.21L34.47,370.217z"/>
	<path fill="none" stroke="#000000" stroke-width="0.2" stroke-linecap="square" stroke-miterlimit="3.25" d="M34.47,370.217
		l230.928,32.913L179.5,179.21L34.47,370.217z"/>
	<path fill="none" stroke="#000000" stroke-linecap="square" stroke-miterlimit="3.25" d="M419.326,179.21
		c0-63.602-25.269-124.605-70.245-169.581c-44.976-44.977-105.974-70.24-169.581-70.24S54.895-35.348,9.919,9.629
		C-35.057,54.605-60.326,115.608-60.326,179.21c0,63.607,25.269,124.61,70.245,169.587c44.977,44.977,105.974,70.24,169.582,70.24
		s124.605-25.264,169.581-70.24C394.058,303.82,419.326,242.817,419.326,179.21z"/>
</g>
</svg>
