<?xml version="1.0" encoding="UTF-8" standalone="no"?>
<!-- Generator: Adobe Illustrator 16.0.0, SVG Export Plug-In . SVG Version: 6.00 Build 0)  -->

<svg
   xmlns:dc="http://purl.org/dc/elements/1.1/"
   xmlns:cc="http://creativecommons.org/ns#"
   xmlns:rdf="http://www.w3.org/1999/02/22-rdf-syntax-ns#"
   xmlns:svg="http://www.w3.org/2000/svg"
   xmlns="http://www.w3.org/2000/svg"
   xmlns:sodipodi="http://sodipodi.sourceforge.net/DTD/sodipodi-0.dtd"
   xmlns:inkscape="http://www.inkscape.org/namespaces/inkscape"
   version="1.1"
   id="Layer_1"
   x="0px"
   y="0px"
   width="210mm"
   height="297mm"
   viewBox="-103.464 -245.697 793.70076 1122.5197"
   enable-background="new -103.464 -245.697 566.929 850.394"
   xml:space="preserve"
   sodipodi:docname="piramidni n8 R7 φ50.svg"
   inkscape:version="0.92.4 (5da689c313, 2019-01-14)"><metadata
   id="metadata42"><rdf:RDF><cc:Work
       rdf:about=""><dc:format>image/svg+xml</dc:format><dc:type
         rdf:resource="http://purl.org/dc/dcmitype/StillImage" /><dc:title></dc:title></cc:Work></rdf:RDF></metadata><defs
   id="defs40" /><sodipodi:namedview
   pagecolor="#ffffff"
   bordercolor="#666666"
   borderopacity="1"
   objecttolerance="10"
   gridtolerance="10"
   guidetolerance="10"
   inkscape:pageopacity="0"
   inkscape:pageshadow="2"
   inkscape:window-width="1920"
   inkscape:window-height="1057"
   id="namedview38"
   showgrid="false"
   units="mm"
   inkscape:document-units="cm"
   inkscape:zoom="0.98649128"
   inkscape:cx="283.46451"
   inkscape:cy="425.19699"
   inkscape:window-x="-8"
   inkscape:window-y="-8"
   inkscape:window-maximized="1"
   inkscape:current-layer="Layer_1" />
<g
   id="surface92"
   transform="matrix(1.3306801,0,0,1.3306801,23.831455,129.67632)">
	<path
   stroke-miterlimit="3.25"
   d="M 430.568,179.21 384.633,34.457 179.5,179.21 Z"
   id="path2"
   inkscape:connector-curvature="0"
   style="fill:#ffffff;stroke:#ffffff;stroke-width:0.2;stroke-linecap:square;stroke-miterlimit:3.25" />
	<path
   stroke-miterlimit="3.25"
   d="M 430.568,179.21 384.633,34.457 179.5,179.21 Z"
   id="path4"
   inkscape:connector-curvature="0"
   style="fill:none;stroke:#000000;stroke-width:0.2;stroke-linecap:square;stroke-miterlimit:3.25" />
	<path
   stroke-miterlimit="3.25"
   d="M 384.633,34.457 263.647,-57.333 179.5,179.21 Z"
   id="path6"
   inkscape:connector-curvature="0"
   style="fill:#ffffff;stroke:#ffffff;stroke-width:0.2;stroke-linecap:square;stroke-miterlimit:3.25" />
	<path
   stroke-miterlimit="3.25"
   d="M 384.633,34.457 263.647,-57.333 179.5,179.21 Z"
   id="path8"
   inkscape:connector-curvature="0"
   style="fill:none;stroke:#000000;stroke-width:0.2;stroke-linecap:square;stroke-miterlimit:3.25" />
	<path
   stroke-miterlimit="3.25"
   d="M 263.647,-57.333 111.87,-62.575 179.5,179.21 Z"
   id="path10"
   inkscape:connector-curvature="0"
   style="fill:#ffffff;stroke:#ffffff;stroke-width:0.2;stroke-linecap:square;stroke-miterlimit:3.25" />
	<path
   stroke-miterlimit="3.25"
   d="M 263.647,-57.333 111.87,-62.575 179.5,179.21 Z"
   id="path12"
   inkscape:connector-curvature="0"
   style="fill:none;stroke:#000000;stroke-width:0.2;stroke-linecap:square;stroke-miterlimit:3.25" />
	<path
   stroke-miterlimit="3.25"
   d="M 111.87,-62.575 -15.167,20.655 179.5,179.21 Z"
   id="path14"
   inkscape:connector-curvature="0"
   style="fill:#ffffff;stroke:#ffffff;stroke-width:0.2;stroke-linecap:square;stroke-miterlimit:3.25" />
	<path
   stroke-miterlimit="3.25"
   d="M 111.87,-62.575 -15.167,20.655 179.5,179.21 Z"
   id="path16"
   inkscape:connector-curvature="0"
   style="fill:none;stroke:#000000;stroke-width:0.2;stroke-linecap:square;stroke-miterlimit:3.25" />
	<path
   stroke-miterlimit="3.25"
   d="M -15.166,20.655 -70.969,161.897 179.5,179.21 Z"
   id="path18"
   inkscape:connector-curvature="0"
   style="fill:#ffffff;stroke:#ffffff;stroke-width:0.2;stroke-linecap:square;stroke-miterlimit:3.25" />
	<path
   stroke-miterlimit="3.25"
   d="M -15.166,20.655 -70.969,161.897 179.5,179.21 Z"
   id="path20"
   inkscape:connector-curvature="0"
   style="fill:none;stroke:#000000;stroke-width:0.2;stroke-linecap:square;stroke-miterlimit:3.25" />
	<path
   stroke-miterlimit="3.25"
   d="M -70.969,161.897 -35.131,309.479 179.5,179.21 Z"
   id="path22"
   inkscape:connector-curvature="0"
   style="fill:#ffffff;stroke:#ffffff;stroke-width:0.2;stroke-linecap:square;stroke-miterlimit:3.25" />
	<path
   stroke-miterlimit="3.25"
   d="M -70.969,161.897 -35.131,309.479 179.5,179.21 Z"
   id="path24"
   inkscape:connector-curvature="0"
   style="fill:none;stroke:#000000;stroke-width:0.2;stroke-linecap:square;stroke-miterlimit:3.25" />
	<path
   stroke-miterlimit="3.25"
   d="M -35.131,309.479 79.242,409.391 179.5,179.21 Z"
   id="path26"
   inkscape:connector-curvature="0"
   style="fill:#ffffff;stroke:#ffffff;stroke-width:0.2;stroke-linecap:square;stroke-miterlimit:3.25" />
	<path
   stroke-miterlimit="3.25"
   d="M -35.131,309.479 79.242,409.391 179.5,179.21 Z"
   id="path28"
   inkscape:connector-curvature="0"
   style="fill:none;stroke:#000000;stroke-width:0.2;stroke-linecap:square;stroke-miterlimit:3.25" />
	<path
   stroke-miterlimit="3.25"
   d="M 79.242,409.391 230.295,425.087 179.5,179.21 Z"
   id="path30"
   inkscape:connector-curvature="0"
   style="fill:#ffffff;stroke:#ffffff;stroke-width:0.2;stroke-linecap:square;stroke-miterlimit:3.25" />
	<path
   stroke-miterlimit="3.25"
   d="M 79.242,409.391 230.295,425.087 179.5,179.21 Z"
   id="path32"
   inkscape:connector-curvature="0"
   style="fill:none;stroke:#000000;stroke-width:0.2;stroke-linecap:square;stroke-miterlimit:3.25" />
	<path
   stroke-miterlimit="3.25"
   d="M 430.568,179.21 C 430.568,112.627 404.115,48.765 357.03,1.68 309.946,-45.404 246.089,-71.852 179.5,-71.852 c -66.588,0 -130.445,26.447 -177.53,73.532 -47.085,47.085 -73.538,110.947 -73.538,177.53 0,66.589 26.453,130.451 73.538,177.535 47.084,47.085 110.941,73.532 177.53,73.532 66.589,0 130.445,-26.447 177.529,-73.532 47.086,-47.084 73.539,-110.946 73.539,-177.535 z"
   id="path34"
   inkscape:connector-curvature="0"
   style="fill:none;stroke:#000000;stroke-linecap:square;stroke-miterlimit:3.25" />
</g>
</svg>