<?xml version="1.0" encoding="utf-8"?>
<!-- Generator: Adobe Illustrator 16.0.0, SVG Export Plug-In . SVG Version: 6.00 Build 0)  -->
<!DOCTYPE svg PUBLIC "-//W3C//DTD SVG 1.1//EN" "http://www.w3.org/Graphics/SVG/1.1/DTD/svg11.dtd">
<svg version="1.1" id="Layer_1" xmlns="http://www.w3.org/2000/svg" xmlns:xlink="http://www.w3.org/1999/xlink" x="0px" y="0px"
	 width="566.93px" height="850.394px" viewBox="0 0 566.93 850.394" enable-background="new 0 0 566.93 850.394"
	 xml:space="preserve">
<g id="surface160">
	<path fill="#FFFFFF" stroke="#FFFFFF" stroke-width="0.2" stroke-linecap="square" stroke-miterlimit="3.25" d="M492.082,365.826
		l-274.46-206.849l59.279,206.85L492.082,365.826L492.082,365.826z"/>
	<path fill="none" stroke="#000000" stroke-width="0.2" stroke-linecap="square" stroke-miterlimit="3.25" d="M492.082,365.826
		l-274.46-206.849l59.279,206.85L492.082,365.826L492.082,365.826z"/>
	<path fill="#FFFFFF" stroke="#FFFFFF" stroke-width="0.2" stroke-linecap="square" stroke-miterlimit="3.25" d="M217.621,158.977
		L94.382,479.802l182.519-113.977L217.621,158.977z"/>
	<path fill="none" stroke="#000000" stroke-width="0.2" stroke-linecap="square" stroke-miterlimit="3.25" d="M217.621,158.977
		L94.382,479.802l182.519-113.977L217.621,158.977z"/>
	<path fill="#FFFFFF" stroke="#FFFFFF" stroke-width="0.2" stroke-linecap="square" stroke-miterlimit="3.25" d="M94.382,479.802
		l342.362,30.086L276.901,365.826L94.382,479.802z"/>
	<path fill="none" stroke="#000000" stroke-width="0.2" stroke-linecap="square" stroke-miterlimit="3.25" d="M94.382,479.802
		l342.362,30.086L276.901,365.826L94.382,479.802z"/>
	<path fill="none" stroke="#000000" stroke-linecap="square" stroke-miterlimit="3.25" d="M492.082,365.826
		c0-57.066-22.672-111.8-63.025-152.154c-40.355-40.354-95.084-63.021-152.156-63.021c-57.07,0-111.8,22.667-152.153,63.021
		c-40.354,40.354-63.026,95.089-63.026,152.154c0,57.071,22.672,111.805,63.026,152.159c40.354,40.354,95.083,63.022,152.153,63.022
		c57.07,0,111.8-22.668,152.154-63.022C469.41,477.632,492.082,422.897,492.082,365.826z"/>
</g>
</svg>
