<?xml version="1.0" encoding="UTF-8" standalone="no"?>
<!-- Generator: Adobe Illustrator 16.0.0, SVG Export Plug-In . SVG Version: 6.00 Build 0)  -->

<svg
   xmlns:dc="http://purl.org/dc/elements/1.1/"
   xmlns:cc="http://creativecommons.org/ns#"
   xmlns:rdf="http://www.w3.org/1999/02/22-rdf-syntax-ns#"
   xmlns:svg="http://www.w3.org/2000/svg"
   xmlns="http://www.w3.org/2000/svg"
   xmlns:sodipodi="http://sodipodi.sourceforge.net/DTD/sodipodi-0.dtd"
   xmlns:inkscape="http://www.inkscape.org/namespaces/inkscape"
   version="1.1"
   id="Layer_1"
   x="0px"
   y="0px"
   width="210mm"
   height="297mm"
   viewBox="-103.464 -245.697 793.70076 1122.5197"
   enable-background="new -103.464 -245.697 566.929 850.394"
   xml:space="preserve"
   sodipodi:docname="piramidni n5 R7 φ50.svg"
   inkscape:version="0.92.4 (5da689c313, 2019-01-14)"><metadata
   id="metadata30"><rdf:RDF><cc:Work
       rdf:about=""><dc:format>image/svg+xml</dc:format><dc:type
         rdf:resource="http://purl.org/dc/dcmitype/StillImage" /><dc:title></dc:title></cc:Work></rdf:RDF></metadata><defs
   id="defs28" /><sodipodi:namedview
   pagecolor="#ffffff"
   bordercolor="#666666"
   borderopacity="1"
   objecttolerance="10"
   gridtolerance="10"
   guidetolerance="10"
   inkscape:pageopacity="0"
   inkscape:pageshadow="2"
   inkscape:window-width="1920"
   inkscape:window-height="1057"
   id="namedview26"
   showgrid="false"
   units="mm"
   inkscape:document-units="cm"
   inkscape:zoom="0.98649128"
   inkscape:cx="283.46451"
   inkscape:cy="506.29249"
   inkscape:window-x="-8"
   inkscape:window-y="-8"
   inkscape:window-maximized="1"
   inkscape:current-layer="Layer_1" />
<g
   id="surface80"
   transform="matrix(1.3305627,0,0,1.3305627,65.723025,111.14115)">
	<path
   stroke-miterlimit="3.25"
   d="M 419.326,179.21 305.889,-24.61 179.5,179.21 Z"
   id="path2"
   inkscape:connector-curvature="0"
   style="fill:#ffffff;stroke:#ffffff;stroke-width:0.2;stroke-linecap:square;stroke-miterlimit:3.25" />
	<path
   stroke-miterlimit="3.25"
   d="M 419.326,179.21 305.889,-24.61 179.5,179.21 Z"
   id="path4"
   inkscape:connector-curvature="0"
   style="fill:none;stroke:#000000;stroke-width:0.2;stroke-linecap:square;stroke-miterlimit:3.25" />
	<path
   stroke-miterlimit="3.25"
   d="M 305.889,-24.61 72.885,-35.614 179.5,179.21 Z"
   id="path6"
   inkscape:connector-curvature="0"
   style="fill:#ffffff;stroke:#ffffff;stroke-width:0.2;stroke-linecap:square;stroke-miterlimit:3.25" />
	<path
   stroke-miterlimit="3.25"
   d="M 305.889,-24.61 72.885,-35.614 179.5,179.21 Z"
   id="path8"
   inkscape:connector-curvature="0"
   style="fill:none;stroke:#000000;stroke-width:0.2;stroke-linecap:square;stroke-miterlimit:3.25" />
	<path
   stroke-miterlimit="3.25"
   d="M 72.885,-35.614 -59.261,156.61 179.5,179.21 Z"
   id="path10"
   inkscape:connector-curvature="0"
   style="fill:#ffffff;stroke:#ffffff;stroke-width:0.2;stroke-linecap:square;stroke-miterlimit:3.25" />
	<path
   stroke-miterlimit="3.25"
   d="M 72.885,-35.614 -59.261,156.61 179.5,179.21 Z"
   id="path12"
   inkscape:connector-curvature="0"
   style="fill:none;stroke:#000000;stroke-width:0.2;stroke-linecap:square;stroke-miterlimit:3.25" />
	<path
   stroke-miterlimit="3.25"
   d="M -59.261,156.61 34.47,370.217 179.5,179.21 Z"
   id="path14"
   inkscape:connector-curvature="0"
   style="fill:#ffffff;stroke:#ffffff;stroke-width:0.2;stroke-linecap:square;stroke-miterlimit:3.25" />
	<path
   stroke-miterlimit="3.25"
   d="M -59.261,156.61 34.47,370.217 179.5,179.21 Z"
   id="path16"
   inkscape:connector-curvature="0"
   style="fill:none;stroke:#000000;stroke-width:0.2;stroke-linecap:square;stroke-miterlimit:3.25" />
	<path
   stroke-miterlimit="3.25"
   d="M 34.47,370.217 265.398,403.13 179.5,179.21 Z"
   id="path18"
   inkscape:connector-curvature="0"
   style="fill:#ffffff;stroke:#ffffff;stroke-width:0.2;stroke-linecap:square;stroke-miterlimit:3.25" />
	<path
   stroke-miterlimit="3.25"
   d="M 34.47,370.217 265.398,403.13 179.5,179.21 Z"
   id="path20"
   inkscape:connector-curvature="0"
   style="fill:none;stroke:#000000;stroke-width:0.2;stroke-linecap:square;stroke-miterlimit:3.25" />
	<path
   stroke-miterlimit="3.25"
   d="m 419.326,179.21 c 0,-63.602 -25.269,-124.605 -70.245,-169.581 -44.976,-44.977 -105.974,-70.24 -169.581,-70.24 -63.607,0 -124.605,25.263 -169.581,70.24 -44.976,44.976 -70.245,105.979 -70.245,169.581 0,63.607 25.269,124.61 70.245,169.587 44.977,44.977 105.974,70.24 169.582,70.24 63.608,0 124.605,-25.264 169.581,-70.24 44.976,-44.977 70.244,-105.98 70.244,-169.587 z"
   id="path22"
   inkscape:connector-curvature="0"
   style="fill:none;stroke:#000000;stroke-linecap:square;stroke-miterlimit:3.25" />
</g>
</svg>