<?xml version="1.0" encoding="UTF-8" standalone="no"?>
<!-- Generator: Adobe Illustrator 16.0.0, SVG Export Plug-In . SVG Version: 6.00 Build 0)  -->

<svg
   xmlns:dc="http://purl.org/dc/elements/1.1/"
   xmlns:cc="http://creativecommons.org/ns#"
   xmlns:rdf="http://www.w3.org/1999/02/22-rdf-syntax-ns#"
   xmlns:svg="http://www.w3.org/2000/svg"
   xmlns="http://www.w3.org/2000/svg"
   xmlns:sodipodi="http://sodipodi.sourceforge.net/DTD/sodipodi-0.dtd"
   xmlns:inkscape="http://www.inkscape.org/namespaces/inkscape"
   version="1.1"
   id="Layer_1"
   x="0px"
   y="0px"
   width="210mm"
   height="297mm"
   viewBox="-103.464 -245.697 793.70076 1122.5197"
   enable-background="new -103.464 -245.697 566.929 850.394"
   xml:space="preserve"
   sodipodi:docname="piramidni n9 R7 φ50.svg"
   inkscape:version="0.92.4 (5da689c313, 2019-01-14)"><metadata
   id="metadata46"><rdf:RDF><cc:Work
       rdf:about=""><dc:format>image/svg+xml</dc:format><dc:type
         rdf:resource="http://purl.org/dc/dcmitype/StillImage" /><dc:title></dc:title></cc:Work></rdf:RDF></metadata><defs
   id="defs44" /><sodipodi:namedview
   pagecolor="#ffffff"
   bordercolor="#666666"
   borderopacity="1"
   objecttolerance="10"
   gridtolerance="10"
   guidetolerance="10"
   inkscape:pageopacity="0"
   inkscape:pageshadow="2"
   inkscape:window-width="716"
   inkscape:window-height="480"
   id="namedview42"
   showgrid="false"
   units="mm"
   inkscape:document-units="cm"
   inkscape:zoom="0.27751843"
   inkscape:cx="283.46451"
   inkscape:cy="425.19699"
   inkscape:window-x="0"
   inkscape:window-y="0"
   inkscape:window-maximized="0"
   inkscape:current-layer="Layer_1" />
<g
   id="surface96"
   transform="matrix(1.3306993,0,0,1.3306993,24.368901,129.13166)">
	<path
   stroke-miterlimit="3.25"
   d="M 432.189,179.21 395.736,48.466 179.5,179.21 Z"
   id="path2"
   inkscape:connector-curvature="0"
   style="fill:#ffffff;stroke:#ffffff;stroke-width:0.2;stroke-linecap:square;stroke-miterlimit:3.25" />
	<path
   stroke-miterlimit="3.25"
   d="M 432.189,179.21 395.736,48.466 179.5,179.21 Z"
   id="path4"
   inkscape:connector-curvature="0"
   style="fill:none;stroke:#000000;stroke-width:0.2;stroke-linecap:square;stroke-miterlimit:3.25" />
	<path
   stroke-miterlimit="3.25"
   d="M 395.736,48.466 296.892,-44.552 179.5,179.21 Z"
   id="path6"
   inkscape:connector-curvature="0"
   style="fill:#ffffff;stroke:#ffffff;stroke-width:0.2;stroke-linecap:square;stroke-miterlimit:3.25" />
	<path
   stroke-miterlimit="3.25"
   d="M 395.736,48.466 296.892,-44.552 179.5,179.21 Z"
   id="path8"
   inkscape:connector-curvature="0"
   style="fill:none;stroke:#000000;stroke-width:0.2;stroke-linecap:square;stroke-miterlimit:3.25" />
	<path
   stroke-miterlimit="3.25"
   d="M 296.892,-44.552 164.177,-73.009 179.5,179.21 Z"
   id="path10"
   inkscape:connector-curvature="0"
   style="fill:#ffffff;stroke:#ffffff;stroke-width:0.2;stroke-linecap:square;stroke-miterlimit:3.25" />
	<path
   stroke-miterlimit="3.25"
   d="M 296.892,-44.552 164.177,-73.009 179.5,179.21 Z"
   id="path12"
   inkscape:connector-curvature="0"
   style="fill:none;stroke:#000000;stroke-width:0.2;stroke-linecap:square;stroke-miterlimit:3.25" />
	<path
   stroke-miterlimit="3.25"
   d="M 164.177,-73.009 35.885,-28.697 179.5,179.21 Z"
   id="path14"
   inkscape:connector-curvature="0"
   style="fill:#ffffff;stroke:#ffffff;stroke-width:0.2;stroke-linecap:square;stroke-miterlimit:3.25" />
	<path
   stroke-miterlimit="3.25"
   d="M 164.177,-73.009 35.885,-28.697 179.5,179.21 Z"
   id="path16"
   inkscape:connector-curvature="0"
   style="fill:none;stroke:#000000;stroke-width:0.2;stroke-linecap:square;stroke-miterlimit:3.25" />
	<path
   stroke-miterlimit="3.25"
   d="M 35.885,-28.697 -50.969,75.606 179.5,179.21 Z"
   id="path18"
   inkscape:connector-curvature="0"
   style="fill:#ffffff;stroke:#ffffff;stroke-width:0.2;stroke-linecap:square;stroke-miterlimit:3.25" />
	<path
   stroke-miterlimit="3.25"
   d="M 35.885,-28.697 -50.969,75.606 179.5,179.21 Z"
   id="path20"
   inkscape:connector-curvature="0"
   style="fill:none;stroke:#000000;stroke-width:0.2;stroke-linecap:square;stroke-miterlimit:3.25" />
	<path
   stroke-miterlimit="3.25"
   d="M -50.969,75.606 -71.332,209.798 179.5,179.21 Z"
   id="path22"
   inkscape:connector-curvature="0"
   style="fill:#ffffff;stroke:#ffffff;stroke-width:0.2;stroke-linecap:square;stroke-miterlimit:3.25" />
	<path
   stroke-miterlimit="3.25"
   d="M -50.969,75.606 -71.332,209.798 179.5,179.21 Z"
   id="path24"
   inkscape:connector-curvature="0"
   style="fill:none;stroke:#000000;stroke-width:0.2;stroke-linecap:square;stroke-miterlimit:3.25" />
	<path
   stroke-miterlimit="3.25"
   d="M -71.333,209.798 -19.316,335.169 179.5,179.21 Z"
   id="path26"
   inkscape:connector-curvature="0"
   style="fill:#ffffff;stroke:#ffffff;stroke-width:0.2;stroke-linecap:square;stroke-miterlimit:3.25" />
	<path
   stroke-miterlimit="3.25"
   d="M -71.333,209.798 -19.316,335.169 179.5,179.21 Z"
   id="path28"
   inkscape:connector-curvature="0"
   style="fill:none;stroke:#000000;stroke-width:0.2;stroke-linecap:square;stroke-miterlimit:3.25" />
	<path
   stroke-miterlimit="3.25"
   d="M -19.316,335.169 90.056,415.539 179.5,179.21 Z"
   id="path30"
   inkscape:connector-curvature="0"
   style="fill:#ffffff;stroke:#ffffff;stroke-width:0.2;stroke-linecap:square;stroke-miterlimit:3.25" />
	<path
   stroke-miterlimit="3.25"
   d="M -19.316,335.169 90.056,415.539 179.5,179.21 Z"
   id="path32"
   inkscape:connector-curvature="0"
   style="fill:none;stroke:#000000;stroke-width:0.2;stroke-linecap:square;stroke-miterlimit:3.25" />
	<path
   stroke-miterlimit="3.25"
   d="M 90.056,415.539 225.238,427.728 179.5,179.21 Z"
   id="path34"
   inkscape:connector-curvature="0"
   style="fill:#ffffff;stroke:#ffffff;stroke-width:0.2;stroke-linecap:square;stroke-miterlimit:3.25" />
	<path
   stroke-miterlimit="3.25"
   d="M 90.056,415.539 225.238,427.728 179.5,179.21 Z"
   id="path36"
   inkscape:connector-curvature="0"
   style="fill:none;stroke:#000000;stroke-width:0.2;stroke-linecap:square;stroke-miterlimit:3.25" />
	<path
   stroke-miterlimit="3.25"
   d="M 432.189,179.21 C 432.189,112.197 405.565,47.922 358.176,0.534 310.788,-46.854 246.519,-73.473 179.5,-73.473 c -67.019,0 -131.287,26.619 -178.676,74.007 -47.388,47.388 -74.013,111.663 -74.013,178.676 0,67.019 26.625,131.294 74.013,178.682 47.389,47.389 111.658,74.007 178.676,74.007 67.018,0 131.288,-26.618 178.676,-74.007 47.389,-47.388 74.013,-111.663 74.013,-178.682 z"
   id="path38"
   inkscape:connector-curvature="0"
   style="fill:none;stroke:#000000;stroke-linecap:square;stroke-miterlimit:3.25" />
</g>
</svg>