<?xml version="1.0" encoding="utf-8"?>
<!-- Generator: Adobe Illustrator 16.0.0, SVG Export Plug-In . SVG Version: 6.00 Build 0)  -->
<!DOCTYPE svg PUBLIC "-//W3C//DTD SVG 1.1//EN" "http://www.w3.org/Graphics/SVG/1.1/DTD/svg11.dtd">
<svg version="1.1" id="Layer_1" xmlns="http://www.w3.org/2000/svg" xmlns:xlink="http://www.w3.org/1999/xlink" x="0px" y="0px"
	 width="566.929px" height="850.394px" viewBox="-103.464 -245.697 566.929 850.394"
	 enable-background="new -103.464 -245.697 566.929 850.394" xml:space="preserve">
<g id="surface88">
	<path fill="#FFFFFF" stroke="#FFFFFF" stroke-width="0.2" stroke-linecap="square" stroke-miterlimit="3.25" d="M428.252,179.21
		L368.655,17.663L179.5,179.21H428.252z"/>
	<path fill="none" stroke="#000000" stroke-width="0.2" stroke-linecap="square" stroke-miterlimit="3.25" d="M428.252,179.21
		L368.655,17.663L179.5,179.21H428.252z"/>
	<path fill="#FFFFFF" stroke="#FFFFFF" stroke-width="0.2" stroke-linecap="square" stroke-miterlimit="3.25" d="M368.655,17.663
		L218.425-66.474L179.5,179.21L368.655,17.663z"/>
	<path fill="none" stroke="#000000" stroke-width="0.2" stroke-linecap="square" stroke-miterlimit="3.25" d="M368.655,17.663
		L218.425-66.474L179.5,179.21L368.655,17.663z"/>
	<path fill="#FFFFFF" stroke="#FFFFFF" stroke-width="0.2" stroke-linecap="square" stroke-miterlimit="3.25" d="M218.425-66.474
		L49.542-32.889L179.5,179.21L218.425-66.474z"/>
	<path fill="none" stroke="#000000" stroke-width="0.2" stroke-linecap="square" stroke-miterlimit="3.25" d="M218.425-66.474
		L49.542-32.889L179.5,179.21L218.425-66.474z"/>
	<path fill="#FFFFFF" stroke="#FFFFFF" stroke-width="0.2" stroke-linecap="square" stroke-miterlimit="3.25" d="M49.542-32.889
		L-57.072,102.325L179.5,179.21L49.542-32.889z"/>
	<path fill="none" stroke="#000000" stroke-width="0.2" stroke-linecap="square" stroke-miterlimit="3.25" d="M49.542-32.889
		L-57.072,102.325L179.5,179.21L49.542-32.889z"/>
	<path fill="#FFFFFF" stroke="#FFFFFF" stroke-width="0.2" stroke-linecap="square" stroke-miterlimit="3.25" d="M-57.072,102.325
		l6.744,172.058L179.5,179.21L-57.072,102.325z"/>
	<path fill="none" stroke="#000000" stroke-width="0.2" stroke-linecap="square" stroke-miterlimit="3.25" d="M-57.072,102.325
		l6.744,172.058L179.5,179.21L-57.072,102.325z"/>
	<path fill="#FFFFFF" stroke="#FFFFFF" stroke-width="0.2" stroke-linecap="square" stroke-miterlimit="3.25" d="M-50.327,274.383
		L66.543,400.839L179.5,179.21L-50.327,274.383z"/>
	<path fill="none" stroke="#000000" stroke-width="0.2" stroke-linecap="square" stroke-miterlimit="3.25" d="M-50.327,274.383
		L66.543,400.839L179.5,179.21L-50.327,274.383z"/>
	<path fill="#FFFFFF" stroke="#FFFFFF" stroke-width="0.2" stroke-linecap="square" stroke-miterlimit="3.25" d="M66.543,400.839
		L237.535,421.1L179.5,179.21L66.543,400.839z"/>
	<path fill="none" stroke="#000000" stroke-width="0.2" stroke-linecap="square" stroke-miterlimit="3.25" d="M66.543,400.839
		L237.535,421.1L179.5,179.21L66.543,400.839z"/>
	<path fill="none" stroke="#000000" stroke-linecap="square" stroke-miterlimit="3.25" d="M428.252,179.21
		c0-65.969-26.21-129.242-72.859-175.892c-46.65-46.65-109.918-72.854-175.893-72.854S50.258-43.332,3.608,3.318
		S-69.251,113.241-69.251,179.21c0,65.975,26.209,129.248,72.859,175.897c46.65,46.65,109.917,72.854,175.892,72.854
		s129.242-26.204,175.893-72.854C402.042,308.458,428.252,245.185,428.252,179.21z"/>
</g>
</svg>
