<?xml version="1.0" encoding="UTF-8" standalone="no"?>
<!-- Generator: Adobe Illustrator 16.0.0, SVG Export Plug-In . SVG Version: 6.00 Build 0)  -->

<svg
   xmlns:dc="http://purl.org/dc/elements/1.1/"
   xmlns:cc="http://creativecommons.org/ns#"
   xmlns:rdf="http://www.w3.org/1999/02/22-rdf-syntax-ns#"
   xmlns:svg="http://www.w3.org/2000/svg"
   xmlns="http://www.w3.org/2000/svg"
   xmlns:sodipodi="http://sodipodi.sourceforge.net/DTD/sodipodi-0.dtd"
   xmlns:inkscape="http://www.inkscape.org/namespaces/inkscape"
   version="1.1"
   id="Layer_1"
   x="0px"
   y="0px"
   width="210mm"
   height="297mm"
   viewBox="0 0 793.7008 1122.5197"
   enable-background="new 0 0 566.93 850.394"
   xml:space="preserve"
   sodipodi:docname="piramidni n3 R7 φ60.svg"
   inkscape:version="0.92.4 (5da689c313, 2019-01-14)"><metadata
   id="metadata22"><rdf:RDF><cc:Work
       rdf:about=""><dc:format>image/svg+xml</dc:format><dc:type
         rdf:resource="http://purl.org/dc/dcmitype/StillImage" /><dc:title></dc:title></cc:Work></rdf:RDF></metadata><defs
   id="defs20" /><sodipodi:namedview
   pagecolor="#ffffff"
   bordercolor="#666666"
   borderopacity="1"
   objecttolerance="10"
   gridtolerance="10"
   guidetolerance="10"
   inkscape:pageopacity="0"
   inkscape:pageshadow="2"
   inkscape:window-width="716"
   inkscape:window-height="480"
   id="namedview18"
   showgrid="false"
   inkscape:document-units="cm"
   units="mm"
   inkscape:zoom="0.27751843"
   inkscape:cx="283.465"
   inkscape:cy="425.19699"
   inkscape:window-x="0"
   inkscape:window-y="0"
   inkscape:window-maximized="0"
   inkscape:current-layer="Layer_1" />
<g
   id="surface164"
   transform="matrix(1.3301134,0,0,1.3301134,-23.307655,103.11822)">
	<path
   stroke-miterlimit="3.25"
   d="M 484.161,304.94 198.198,114.302 277.632,304.94 Z"
   id="path2"
   inkscape:connector-curvature="0"
   style="fill:#ffffff;stroke:#ffffff;stroke-width:0.2;stroke-linecap:square;stroke-miterlimit:3.25" />
	<path
   stroke-miterlimit="3.25"
   d="M 484.161,304.94 198.198,114.302 277.632,304.94 Z"
   id="path4"
   inkscape:connector-curvature="0"
   style="fill:none;stroke:#000000;stroke-width:0.2;stroke-linecap:square;stroke-miterlimit:3.25" />
	<path
   stroke-miterlimit="3.25"
   d="M 198.198,114.302 132.209,451.589 277.632,304.94 Z"
   id="path6"
   inkscape:connector-curvature="0"
   style="fill:#ffffff;stroke:#ffffff;stroke-width:0.2;stroke-linecap:square;stroke-miterlimit:3.25" />
	<path
   stroke-miterlimit="3.25"
   d="M 198.198,114.302 132.209,451.589 277.632,304.94 Z"
   id="path8"
   inkscape:connector-curvature="0"
   style="fill:none;stroke:#000000;stroke-width:0.2;stroke-linecap:square;stroke-miterlimit:3.25" />
	<path
   stroke-miterlimit="3.25"
   d="m 132.209,451.589 336.723,-68.812 -191.3,-77.838 z"
   id="path10"
   inkscape:connector-curvature="0"
   style="fill:#ffffff;stroke:#ffffff;stroke-width:0.2;stroke-linecap:square;stroke-miterlimit:3.25" />
	<path
   stroke-miterlimit="3.25"
   d="m 132.209,451.589 336.723,-68.812 -191.3,-77.838 z"
   id="path12"
   inkscape:connector-curvature="0"
   style="fill:none;stroke:#000000;stroke-width:0.2;stroke-linecap:square;stroke-miterlimit:3.25" />
	<path
   stroke-miterlimit="3.25"
   d="m 484.161,304.94 c 0,-54.771 -21.761,-107.304 -60.492,-146.036 -38.731,-38.731 -91.261,-60.487 -146.037,-60.487 -54.775,0 -107.304,21.756 -146.036,60.488 -38.73,38.731 -60.491,91.264 -60.491,146.035 0,54.776 21.76,107.309 60.491,146.041 38.732,38.731 91.261,60.487 146.036,60.487 54.775,0 107.306,-21.756 146.036,-60.487 38.731,-38.731 60.493,-91.265 60.493,-146.041 z"
   id="path14"
   inkscape:connector-curvature="0"
   style="fill:none;stroke:#000000;stroke-linecap:square;stroke-miterlimit:3.25" />
</g>
</svg>