<?xml version="1.0" encoding="utf-8"?>
<!-- Generator: Adobe Illustrator 16.0.0, SVG Export Plug-In . SVG Version: 6.00 Build 0)  -->
<!DOCTYPE svg PUBLIC "-//W3C//DTD SVG 1.1//EN" "http://www.w3.org/Graphics/SVG/1.1/DTD/svg11.dtd">
<svg version="1.1" id="Layer_1" xmlns="http://www.w3.org/2000/svg" xmlns:xlink="http://www.w3.org/1999/xlink" x="0px" y="0px"
	 width="566.929px" height="850.394px" viewBox="-103.464 -245.697 566.929 850.394"
	 enable-background="new -103.464 -245.697 566.929 850.394" xml:space="preserve">
<g id="surface156">
	<path fill="#FFFFFF" stroke="#FFFFFF" stroke-width="0.2" stroke-linecap="square" stroke-miterlimit="3.25" d="M410.482,179.21
		L154.797-50.44L179.5,179.21H410.482z"/>
	<path fill="none" stroke="#000000" stroke-width="0.2" stroke-linecap="square" stroke-miterlimit="3.25" d="M410.482,179.21
		L154.797-50.44L179.5,179.21H410.482z"/>
	<path fill="#FFFFFF" stroke="#FFFFFF" stroke-width="0.2" stroke-linecap="square" stroke-miterlimit="3.25" d="M154.797-50.44
		L-46.198,228.34L179.5,179.21L154.797-50.44z"/>
	<path fill="none" stroke="#000000" stroke-width="0.2" stroke-linecap="square" stroke-miterlimit="3.25" d="M154.797-50.44
		L-46.198,228.34L179.5,179.21L154.797-50.44z"/>
	<path fill="#FFFFFF" stroke="#FFFFFF" stroke-width="0.2" stroke-linecap="square" stroke-miterlimit="3.25" d="M-46.198,228.34
		l298.684,170.018L179.5,179.21L-46.198,228.34z"/>
	<path fill="none" stroke="#000000" stroke-width="0.2" stroke-linecap="square" stroke-miterlimit="3.25" d="M-46.198,228.34
		l298.684,170.018L179.5,179.21L-46.198,228.34z"/>
	<path fill="none" stroke="#000000" stroke-linecap="square" stroke-miterlimit="3.25" d="M410.482,179.21
		c0-61.256-24.335-120.009-67.657-163.327C299.508-27.434,240.762-51.766,179.5-51.766c-61.261,0-120.008,24.332-163.327,67.648
		C-27.144,59.201-51.48,117.954-51.48,179.21c0,61.262,24.336,120.014,67.653,163.33c43.319,43.321,102.066,67.651,163.327,67.651
		c61.262,0,120.008-24.33,163.325-67.651C386.147,299.224,410.482,240.472,410.482,179.21z"/>
</g>
</svg>
