<?xml version="1.0" encoding="utf-8"?>
<!-- Generator: Adobe Illustrator 16.0.0, SVG Export Plug-In . SVG Version: 6.00 Build 0)  -->
<!DOCTYPE svg PUBLIC "-//W3C//DTD SVG 1.1//EN" "http://www.w3.org/Graphics/SVG/1.1/DTD/svg11.dtd">
<svg version="1.1" id="Layer_1" xmlns="http://www.w3.org/2000/svg" xmlns:xlink="http://www.w3.org/1999/xlink" x="0px" y="0px"
	 width="566.93px" height="850.394px" viewBox="0 0 566.93 850.394" enable-background="new 0 0 566.93 850.394"
	 xml:space="preserve">
<g id="surface152">
	<path fill="#FFFFFF" stroke="#FFFFFF" stroke-width="0.2" stroke-linecap="square" stroke-miterlimit="3.25" d="M542.438,353.21
		L320.46,96.896L283.464,353.21H542.438z"/>
	<path fill="none" stroke="#000000" stroke-width="0.2" stroke-linecap="square" stroke-miterlimit="3.25" d="M542.438,353.21
		L320.46,96.896L283.464,353.21H542.438z"/>
	<path fill="#FFFFFF" stroke="#FFFFFF" stroke-width="0.2" stroke-linecap="square" stroke-miterlimit="3.25" d="M320.46,96.896
		L35.064,279.981l248.399,73.229L320.46,96.896z"/>
	<path fill="none" stroke="#000000" stroke-width="0.2" stroke-linecap="square" stroke-miterlimit="3.25" d="M320.46,96.896
		L35.064,279.981l248.399,73.229L320.46,96.896z"/>
	<path fill="#FFFFFF" stroke="#FFFFFF" stroke-width="0.2" stroke-linecap="square" stroke-miterlimit="3.25" d="M35.064,279.981
		l140.429,308.625L283.464,353.21L35.064,279.981z"/>
	<path fill="none" stroke="#000000" stroke-width="0.2" stroke-linecap="square" stroke-miterlimit="3.25" d="M35.064,279.981
		l140.429,308.625L283.464,353.21L35.064,279.981z"/>
	<path fill="none" stroke="#000000" stroke-linecap="square" stroke-miterlimit="3.25" d="M542.438,353.21
		c0-68.68-27.287-134.553-75.854-183.12c-48.566-48.567-114.434-75.847-183.12-75.847c-68.686,0-134.552,27.28-183.12,75.847
		c-48.566,48.567-75.853,114.44-75.853,183.12c0,68.686,27.286,134.559,75.853,183.126c48.567,48.565,114.436,75.847,183.12,75.847
		c68.686,0,134.554-27.279,183.12-75.847C515.151,487.769,542.438,421.896,542.438,353.21z"/>
</g>
</svg>
