<?xml version="1.0" encoding="utf-8"?>
<!-- Generator: Adobe Illustrator 16.0.0, SVG Export Plug-In . SVG Version: 6.00 Build 0)  -->
<!DOCTYPE svg PUBLIC "-//W3C//DTD SVG 1.1//EN" "http://www.w3.org/Graphics/SVG/1.1/DTD/svg11.dtd">
<svg version="1.1" id="Layer_1" xmlns="http://www.w3.org/2000/svg" xmlns:xlink="http://www.w3.org/1999/xlink" x="0px" y="0px"
	 width="566.929px" height="850.394px" viewBox="-103.464 -245.697 566.929 850.394"
	 enable-background="new -103.464 -245.697 566.929 850.394" xml:space="preserve">
<g id="surface160">
	<path fill="#FFFFFF" stroke="#FFFFFF" stroke-width="0.2" stroke-linecap="square" stroke-miterlimit="3.25" d="M394.681,179.21
		L120.22-27.639l59.28,206.85H394.681z"/>
	<path fill="none" stroke="#000000" stroke-width="0.2" stroke-linecap="square" stroke-miterlimit="3.25" d="M394.681,179.21
		L120.22-27.639l59.28,206.85H394.681z"/>
	<path fill="#FFFFFF" stroke="#FFFFFF" stroke-width="0.2" stroke-linecap="square" stroke-miterlimit="3.25" d="M120.22-27.639
		L-3.019,293.186L179.5,179.21L120.22-27.639z"/>
	<path fill="none" stroke="#000000" stroke-width="0.2" stroke-linecap="square" stroke-miterlimit="3.25" d="M120.22-27.639
		L-3.019,293.186L179.5,179.21L120.22-27.639z"/>
	<path fill="#FFFFFF" stroke="#FFFFFF" stroke-width="0.2" stroke-linecap="square" stroke-miterlimit="3.25" d="M-3.019,293.186
		l342.361,30.087L179.5,179.21L-3.019,293.186z"/>
	<path fill="none" stroke="#000000" stroke-width="0.2" stroke-linecap="square" stroke-miterlimit="3.25" d="M-3.019,293.186
		l342.361,30.087L179.5,179.21L-3.019,293.186z"/>
	<path fill="none" stroke="#000000" stroke-linecap="square" stroke-miterlimit="3.25" d="M394.681,179.21
		c0-57.066-22.672-111.8-63.026-152.154S236.571-35.965,179.5-35.965c-57.071,0-111.8,22.667-152.154,63.021
		S-35.68,122.145-35.68,179.21c0,57.071,22.672,111.805,63.026,152.159c40.354,40.354,95.083,63.022,152.154,63.022
		c57.07,0,111.8-22.668,152.154-63.022C372.009,291.016,394.681,236.281,394.681,179.21z"/>
</g>
</svg>
