<?xml version="1.0" encoding="utf-8"?>
<!-- Generator: Adobe Illustrator 16.0.0, SVG Export Plug-In . SVG Version: 6.00 Build 0)  -->
<!DOCTYPE svg PUBLIC "-//W3C//DTD SVG 1.1//EN" "http://www.w3.org/Graphics/SVG/1.1/DTD/svg11.dtd">
<svg version="1.1" id="Layer_1" xmlns="http://www.w3.org/2000/svg" xmlns:xlink="http://www.w3.org/1999/xlink" x="0px" y="0px"
	 width="566.93px" height="850.394px" viewBox="0 0 566.93 850.394" enable-background="new 0 0 566.93 850.394"
	 xml:space="preserve">
<g id="surface164">
	<path fill="#FFFFFF" stroke="#FFFFFF" stroke-width="0.2" stroke-linecap="square" stroke-miterlimit="3.25" d="M484.161,304.94
		L198.198,114.302l79.434,190.638H484.161z"/>
	<path fill="none" stroke="#000000" stroke-width="0.2" stroke-linecap="square" stroke-miterlimit="3.25" d="M484.161,304.94
		L198.198,114.302l79.434,190.638H484.161z"/>
	<path fill="#FFFFFF" stroke="#FFFFFF" stroke-width="0.2" stroke-linecap="square" stroke-miterlimit="3.25" d="M198.198,114.302
		l-65.989,337.287L277.632,304.94L198.198,114.302z"/>
	<path fill="none" stroke="#000000" stroke-width="0.2" stroke-linecap="square" stroke-miterlimit="3.25" d="M198.198,114.302
		l-65.989,337.287L277.632,304.94L198.198,114.302z"/>
	<path fill="#FFFFFF" stroke="#FFFFFF" stroke-width="0.2" stroke-linecap="square" stroke-miterlimit="3.25" d="M132.209,451.589
		l336.723-68.812l-191.3-77.838L132.209,451.589z"/>
	<path fill="none" stroke="#000000" stroke-width="0.2" stroke-linecap="square" stroke-miterlimit="3.25" d="M132.209,451.589
		l336.723-68.812l-191.3-77.838L132.209,451.589z"/>
	<path fill="none" stroke="#000000" stroke-linecap="square" stroke-miterlimit="3.25" d="M484.161,304.94
		c0-54.771-21.761-107.304-60.492-146.036c-38.731-38.731-91.261-60.487-146.037-60.487c-54.775,0-107.304,21.756-146.036,60.488
		c-38.73,38.731-60.491,91.264-60.491,146.035c0,54.776,21.76,107.309,60.491,146.041c38.732,38.731,91.261,60.487,146.036,60.487
		s107.306-21.756,146.036-60.487C462.399,412.25,484.161,359.716,484.161,304.94z"/>
</g>
</svg>
