<?xml version="1.0" encoding="UTF-8" standalone="no"?>
<!-- Generator: Adobe Illustrator 16.0.0, SVG Export Plug-In . SVG Version: 6.00 Build 0)  -->

<svg
   xmlns:dc="http://purl.org/dc/elements/1.1/"
   xmlns:cc="http://creativecommons.org/ns#"
   xmlns:rdf="http://www.w3.org/1999/02/22-rdf-syntax-ns#"
   xmlns:svg="http://www.w3.org/2000/svg"
   xmlns="http://www.w3.org/2000/svg"
   xmlns:sodipodi="http://sodipodi.sourceforge.net/DTD/sodipodi-0.dtd"
   xmlns:inkscape="http://www.inkscape.org/namespaces/inkscape"
   version="1.1"
   id="Layer_1"
   x="0px"
   y="0px"
   width="210mm"
   height="297mm"
   viewBox="-103.464 -245.697 793.70076 1122.5197"
   enable-background="new -103.464 -245.697 566.929 850.394"
   xml:space="preserve"
   sodipodi:docname="piramidni n3 R7 φ40.svg"
   inkscape:version="0.92.4 (5da689c313, 2019-01-14)"><metadata
   id="metadata22"><rdf:RDF><cc:Work
       rdf:about=""><dc:format>image/svg+xml</dc:format><dc:type
         rdf:resource="http://purl.org/dc/dcmitype/StillImage" /><dc:title></dc:title></cc:Work></rdf:RDF></metadata><defs
   id="defs20" /><sodipodi:namedview
   pagecolor="#ffffff"
   bordercolor="#666666"
   borderopacity="1"
   objecttolerance="10"
   gridtolerance="10"
   guidetolerance="10"
   inkscape:pageopacity="0"
   inkscape:pageshadow="2"
   inkscape:window-width="716"
   inkscape:window-height="480"
   id="namedview18"
   showgrid="false"
   units="mm"
   inkscape:document-units="cm"
   inkscape:zoom="0.27751843"
   inkscape:cx="281.28091"
   inkscape:cy="421.02153"
   inkscape:window-x="0"
   inkscape:window-y="0"
   inkscape:window-maximized="0"
   inkscape:current-layer="Layer_1" />
<g
   id="surface156"
   transform="matrix(1.3304539,0,0,1.3304539,17.176995,136.41126)">
	<path
   stroke-miterlimit="3.25"
   d="M 410.482,179.21 154.797,-50.44 179.5,179.21 Z"
   id="path2"
   inkscape:connector-curvature="0"
   style="fill:#ffffff;stroke:#ffffff;stroke-width:0.2;stroke-linecap:square;stroke-miterlimit:3.25" />
	<path
   stroke-miterlimit="3.25"
   d="M 410.482,179.21 154.797,-50.44 179.5,179.21 Z"
   id="path4"
   inkscape:connector-curvature="0"
   style="fill:none;stroke:#000000;stroke-width:0.2;stroke-linecap:square;stroke-miterlimit:3.25" />
	<path
   stroke-miterlimit="3.25"
   d="M 154.797,-50.44 -46.198,228.34 179.5,179.21 Z"
   id="path6"
   inkscape:connector-curvature="0"
   style="fill:#ffffff;stroke:#ffffff;stroke-width:0.2;stroke-linecap:square;stroke-miterlimit:3.25" />
	<path
   stroke-miterlimit="3.25"
   d="M 154.797,-50.44 -46.198,228.34 179.5,179.21 Z"
   id="path8"
   inkscape:connector-curvature="0"
   style="fill:none;stroke:#000000;stroke-width:0.2;stroke-linecap:square;stroke-miterlimit:3.25" />
	<path
   stroke-miterlimit="3.25"
   d="M -46.198,228.34 252.486,398.358 179.5,179.21 Z"
   id="path10"
   inkscape:connector-curvature="0"
   style="fill:#ffffff;stroke:#ffffff;stroke-width:0.2;stroke-linecap:square;stroke-miterlimit:3.25" />
	<path
   stroke-miterlimit="3.25"
   d="M -46.198,228.34 252.486,398.358 179.5,179.21 Z"
   id="path12"
   inkscape:connector-curvature="0"
   style="fill:none;stroke:#000000;stroke-width:0.2;stroke-linecap:square;stroke-miterlimit:3.25" />
	<path
   stroke-miterlimit="3.25"
   d="m 410.482,179.21 c 0,-61.256 -24.335,-120.009 -67.657,-163.327 -43.317,-43.317 -102.063,-67.649 -163.325,-67.649 -61.261,0 -120.008,24.332 -163.327,67.648 -43.317,43.319 -67.653,102.072 -67.653,163.328 0,61.262 24.336,120.014 67.653,163.33 43.319,43.321 102.066,67.651 163.327,67.651 61.262,0 120.008,-24.33 163.325,-67.651 43.322,-43.316 67.657,-102.068 67.657,-163.33 z"
   id="path14"
   inkscape:connector-curvature="0"
   style="fill:none;stroke:#000000;stroke-linecap:square;stroke-miterlimit:3.25" />
</g>
</svg>