<?xml version="1.0" encoding="utf-8"?>
<!-- Generator: Adobe Illustrator 16.0.0, SVG Export Plug-In . SVG Version: 6.00 Build 0)  -->
<!DOCTYPE svg PUBLIC "-//W3C//DTD SVG 1.1//EN" "http://www.w3.org/Graphics/SVG/1.1/DTD/svg11.dtd">
<svg version="1.1" id="Layer_1" xmlns="http://www.w3.org/2000/svg" xmlns:xlink="http://www.w3.org/1999/xlink" x="0px" y="0px"
	 width="566.929px" height="850.394px" viewBox="-103.464 -245.697 566.929 850.394"
	 enable-background="new -103.464 -245.697 566.929 850.394" xml:space="preserve">
<g id="surface92">
	<path fill="#FFFFFF" stroke="#FFFFFF" stroke-width="0.2" stroke-linecap="square" stroke-miterlimit="3.25" d="M430.568,179.21
		L384.633,34.457L179.5,179.21H430.568z"/>
	<path fill="none" stroke="#000000" stroke-width="0.2" stroke-linecap="square" stroke-miterlimit="3.25" d="M430.568,179.21
		L384.633,34.457L179.5,179.21H430.568z"/>
	<path fill="#FFFFFF" stroke="#FFFFFF" stroke-width="0.2" stroke-linecap="square" stroke-miterlimit="3.25" d="M384.633,34.457
		l-120.986-91.79L179.5,179.21L384.633,34.457z"/>
	<path fill="none" stroke="#000000" stroke-width="0.2" stroke-linecap="square" stroke-miterlimit="3.25" d="M384.633,34.457
		l-120.986-91.79L179.5,179.21L384.633,34.457z"/>
	<path fill="#FFFFFF" stroke="#FFFFFF" stroke-width="0.2" stroke-linecap="square" stroke-miterlimit="3.25" d="M263.647-57.333
		L111.87-62.575L179.5,179.21L263.647-57.333z"/>
	<path fill="none" stroke="#000000" stroke-width="0.2" stroke-linecap="square" stroke-miterlimit="3.25" d="M263.647-57.333
		L111.87-62.575L179.5,179.21L263.647-57.333z"/>
	<path fill="#FFFFFF" stroke="#FFFFFF" stroke-width="0.2" stroke-linecap="square" stroke-miterlimit="3.25" d="M111.87-62.575
		l-127.037,83.23L179.5,179.21L111.87-62.575z"/>
	<path fill="none" stroke="#000000" stroke-width="0.2" stroke-linecap="square" stroke-miterlimit="3.25" d="M111.87-62.575
		l-127.037,83.23L179.5,179.21L111.87-62.575z"/>
	<path fill="#FFFFFF" stroke="#FFFFFF" stroke-width="0.2" stroke-linecap="square" stroke-miterlimit="3.25" d="M-15.166,20.655
		l-55.803,141.242L179.5,179.21L-15.166,20.655z"/>
	<path fill="none" stroke="#000000" stroke-width="0.2" stroke-linecap="square" stroke-miterlimit="3.25" d="M-15.166,20.655
		l-55.803,141.242L179.5,179.21L-15.166,20.655z"/>
	<path fill="#FFFFFF" stroke="#FFFFFF" stroke-width="0.2" stroke-linecap="square" stroke-miterlimit="3.25" d="M-70.969,161.897
		l35.838,147.582L179.5,179.21L-70.969,161.897z"/>
	<path fill="none" stroke="#000000" stroke-width="0.2" stroke-linecap="square" stroke-miterlimit="3.25" d="M-70.969,161.897
		l35.838,147.582L179.5,179.21L-70.969,161.897z"/>
	<path fill="#FFFFFF" stroke="#FFFFFF" stroke-width="0.2" stroke-linecap="square" stroke-miterlimit="3.25" d="M-35.131,309.479
		l114.373,99.912L179.5,179.21L-35.131,309.479z"/>
	<path fill="none" stroke="#000000" stroke-width="0.2" stroke-linecap="square" stroke-miterlimit="3.25" d="M-35.131,309.479
		l114.373,99.912L179.5,179.21L-35.131,309.479z"/>
	<path fill="#FFFFFF" stroke="#FFFFFF" stroke-width="0.2" stroke-linecap="square" stroke-miterlimit="3.25" d="M79.242,409.391
		l151.053,15.696L179.5,179.21L79.242,409.391z"/>
	<path fill="none" stroke="#000000" stroke-width="0.2" stroke-linecap="square" stroke-miterlimit="3.25" d="M79.242,409.391
		l151.053,15.696L179.5,179.21L79.242,409.391z"/>
	<path fill="none" stroke="#000000" stroke-linecap="square" stroke-miterlimit="3.25" d="M430.568,179.21
		c0-66.583-26.453-130.445-73.538-177.53C309.946-45.404,246.089-71.852,179.5-71.852c-66.588,0-130.445,26.447-177.53,73.532
		s-73.538,110.947-73.538,177.53c0,66.589,26.453,130.451,73.538,177.535c47.084,47.085,110.941,73.532,177.53,73.532
		c66.589,0,130.445-26.447,177.529-73.532C404.115,309.661,430.568,245.799,430.568,179.21z"/>
</g>
</svg>
