<?xml version="1.0" encoding="utf-8"?>
<!-- Generator: Adobe Illustrator 16.0.0, SVG Export Plug-In . SVG Version: 6.00 Build 0)  -->
<!DOCTYPE svg PUBLIC "-//W3C//DTD SVG 1.1//EN" "http://www.w3.org/Graphics/SVG/1.1/DTD/svg11.dtd">
<svg version="1.1" id="Layer_1" xmlns="http://www.w3.org/2000/svg" xmlns:xlink="http://www.w3.org/1999/xlink" x="0px" y="0px"
	 width="566.93px" height="850.394px" viewBox="0 0 566.93 850.394" enable-background="new 0 0 566.93 850.394"
	 xml:space="preserve">
<g id="surface76">
	<path fill="#FFFFFF" stroke="#FFFFFF" stroke-width="0.2" stroke-linecap="square" stroke-miterlimit="3.25" d="M502.226,433.228
		L331.574,210.461L271.5,433.228H502.226z"/>
	<path fill="none" stroke="#000000" stroke-width="0.2" stroke-linecap="square" stroke-miterlimit="3.25" d="M502.226,433.228
		L331.574,210.461L271.5,433.228H502.226z"/>
	<path fill="#FFFFFF" stroke="#FFFFFF" stroke-width="0.2" stroke-linecap="square" stroke-miterlimit="3.25" d="M331.574,210.461
		L72.062,317.221L271.5,433.228L331.574,210.461z"/>
	<path fill="none" stroke="#000000" stroke-width="0.2" stroke-linecap="square" stroke-miterlimit="3.25" d="M331.574,210.461
		L72.062,317.221L271.5,433.228L331.574,210.461z"/>
	<path fill="#FFFFFF" stroke="#FFFFFF" stroke-width="0.2" stroke-linecap="square" stroke-miterlimit="3.25" d="M72.062,317.221
		l35.502,278.362L271.5,433.228L72.062,317.221z"/>
	<path fill="none" stroke="#000000" stroke-width="0.2" stroke-linecap="square" stroke-miterlimit="3.25" d="M72.062,317.221
		l35.502,278.362L271.5,433.228L72.062,317.221z"/>
	<path fill="#FFFFFF" stroke="#FFFFFF" stroke-width="0.2" stroke-linecap="square" stroke-miterlimit="3.25" d="M107.564,595.583
		l278.007,38.202L271.5,433.228L107.564,595.583z"/>
	<path fill="none" stroke="#000000" stroke-width="0.2" stroke-linecap="square" stroke-miterlimit="3.25" d="M107.564,595.583
		l278.007,38.202L271.5,433.228L107.564,595.583z"/>
	<path fill="none" stroke="#000000" stroke-linecap="square" stroke-miterlimit="3.25" d="M502.226,433.228
		c0-61.188-24.31-119.877-67.579-163.146c-43.269-43.269-101.953-67.575-163.147-67.575c-61.193,0-119.876,24.305-163.146,67.574
		c-43.271,43.269-67.58,101.958-67.58,163.146c0,61.193,24.31,119.881,67.58,163.151c43.27,43.271,101.953,67.574,163.146,67.574
		c61.193,0,119.878-24.306,163.146-67.574S502.226,494.419,502.226,433.228z"/>
</g>
</svg>
