<?xml version="1.0" encoding="utf-8"?>
<!-- Generator: Adobe Illustrator 16.0.0, SVG Export Plug-In . SVG Version: 6.00 Build 0)  -->
<!DOCTYPE svg PUBLIC "-//W3C//DTD SVG 1.1//EN" "http://www.w3.org/Graphics/SVG/1.1/DTD/svg11.dtd">
<svg version="1.1" id="Layer_1" xmlns="http://www.w3.org/2000/svg" xmlns:xlink="http://www.w3.org/1999/xlink" x="0px" y="0px"
	 width="566.929px" height="850.394px" viewBox="-103.464 -245.697 566.929 850.394"
	 enable-background="new -103.464 -245.697 566.929 850.394" xml:space="preserve">
<g id="surface96">
	<path fill="#FFFFFF" stroke="#FFFFFF" stroke-width="0.2" stroke-linecap="square" stroke-miterlimit="3.25" d="M432.189,179.21
		L395.736,48.466L179.5,179.21H432.189z"/>
	<path fill="none" stroke="#000000" stroke-width="0.2" stroke-linecap="square" stroke-miterlimit="3.25" d="M432.189,179.21
		L395.736,48.466L179.5,179.21H432.189z"/>
	<path fill="#FFFFFF" stroke="#FFFFFF" stroke-width="0.2" stroke-linecap="square" stroke-miterlimit="3.25" d="M395.736,48.466
		l-98.844-93.018L179.5,179.21L395.736,48.466z"/>
	<path fill="none" stroke="#000000" stroke-width="0.2" stroke-linecap="square" stroke-miterlimit="3.25" d="M395.736,48.466
		l-98.844-93.018L179.5,179.21L395.736,48.466z"/>
	<path fill="#FFFFFF" stroke="#FFFFFF" stroke-width="0.2" stroke-linecap="square" stroke-miterlimit="3.25" d="M296.892-44.552
		L164.177-73.009L179.5,179.21L296.892-44.552z"/>
	<path fill="none" stroke="#000000" stroke-width="0.2" stroke-linecap="square" stroke-miterlimit="3.25" d="M296.892-44.552
		L164.177-73.009L179.5,179.21L296.892-44.552z"/>
	<path fill="#FFFFFF" stroke="#FFFFFF" stroke-width="0.2" stroke-linecap="square" stroke-miterlimit="3.25" d="M164.177-73.009
		L35.885-28.697L179.5,179.21L164.177-73.009z"/>
	<path fill="none" stroke="#000000" stroke-width="0.2" stroke-linecap="square" stroke-miterlimit="3.25" d="M164.177-73.009
		L35.885-28.697L179.5,179.21L164.177-73.009z"/>
	<path fill="#FFFFFF" stroke="#FFFFFF" stroke-width="0.2" stroke-linecap="square" stroke-miterlimit="3.25" d="M35.885-28.697
		L-50.969,75.606L179.5,179.21L35.885-28.697z"/>
	<path fill="none" stroke="#000000" stroke-width="0.2" stroke-linecap="square" stroke-miterlimit="3.25" d="M35.885-28.697
		L-50.969,75.606L179.5,179.21L35.885-28.697z"/>
	<path fill="#FFFFFF" stroke="#FFFFFF" stroke-width="0.2" stroke-linecap="square" stroke-miterlimit="3.25" d="M-50.969,75.606
		l-20.363,134.192L179.5,179.21L-50.969,75.606z"/>
	<path fill="none" stroke="#000000" stroke-width="0.2" stroke-linecap="square" stroke-miterlimit="3.25" d="M-50.969,75.606
		l-20.363,134.192L179.5,179.21L-50.969,75.606z"/>
	<path fill="#FFFFFF" stroke="#FFFFFF" stroke-width="0.2" stroke-linecap="square" stroke-miterlimit="3.25" d="M-71.333,209.798
		l52.017,125.371L179.5,179.21L-71.333,209.798z"/>
	<path fill="none" stroke="#000000" stroke-width="0.2" stroke-linecap="square" stroke-miterlimit="3.25" d="M-71.333,209.798
		l52.017,125.371L179.5,179.21L-71.333,209.798z"/>
	<path fill="#FFFFFF" stroke="#FFFFFF" stroke-width="0.2" stroke-linecap="square" stroke-miterlimit="3.25" d="M-19.316,335.169
		l109.372,80.37L179.5,179.21L-19.316,335.169z"/>
	<path fill="none" stroke="#000000" stroke-width="0.2" stroke-linecap="square" stroke-miterlimit="3.25" d="M-19.316,335.169
		l109.372,80.37L179.5,179.21L-19.316,335.169z"/>
	<path fill="#FFFFFF" stroke="#FFFFFF" stroke-width="0.2" stroke-linecap="square" stroke-miterlimit="3.25" d="M90.056,415.539
		l135.182,12.189L179.5,179.21L90.056,415.539z"/>
	<path fill="none" stroke="#000000" stroke-width="0.2" stroke-linecap="square" stroke-miterlimit="3.25" d="M90.056,415.539
		l135.182,12.189L179.5,179.21L90.056,415.539z"/>
	<path fill="none" stroke="#000000" stroke-linecap="square" stroke-miterlimit="3.25" d="M432.189,179.21
		c0-67.013-26.624-131.288-74.013-178.676C310.788-46.854,246.519-73.473,179.5-73.473S48.213-46.854,0.824,0.534
		C-46.564,47.922-73.189,112.197-73.189,179.21c0,67.019,26.625,131.294,74.013,178.682
		c47.389,47.389,111.658,74.007,178.676,74.007s131.288-26.618,178.676-74.007C405.565,310.504,432.189,246.229,432.189,179.21z"/>
</g>
</svg>
