<?xml version="1.0" encoding="utf-8"?>
<!-- Generator: Adobe Illustrator 16.0.0, SVG Export Plug-In . SVG Version: 6.00 Build 0)  -->
<!DOCTYPE svg PUBLIC "-//W3C//DTD SVG 1.1//EN" "http://www.w3.org/Graphics/SVG/1.1/DTD/svg11.dtd">
<svg version="1.1" id="Layer_1" xmlns="http://www.w3.org/2000/svg" xmlns:xlink="http://www.w3.org/1999/xlink" x="0px" y="0px"
	 width="566.929px" height="850.394px" viewBox="-103.464 -245.575 566.929 850.394"
	 enable-background="new -103.464 -245.575 566.929 850.394" xml:space="preserve">
<g id="surface84">
	<path fill="#FFFFFF" stroke="#FFFFFF" stroke-width="0.2" stroke-linecap="square" stroke-miterlimit="3.25" d="M424.783,179.332
		L344.522-2.137L179.5,179.332H424.783z"/>
	<path fill="none" stroke="#000000" stroke-width="0.2" stroke-linecap="square" stroke-miterlimit="3.25" d="M424.783,179.332
		L344.522-2.137L179.5,179.332H424.783z"/>
	<path fill="#FFFFFF" stroke="#FFFFFF" stroke-width="0.2" stroke-linecap="square" stroke-miterlimit="3.25" d="M344.522-2.137
		L156.27-64.845l23.23,244.177L344.522-2.137z"/>
	<path fill="none" stroke="#000000" stroke-width="0.2" stroke-linecap="square" stroke-miterlimit="3.25" d="M344.522-2.137
		L156.27-64.845l23.23,244.177L344.522-2.137z"/>
	<path fill="#FFFFFF" stroke="#FFFFFF" stroke-width="0.2" stroke-linecap="square" stroke-miterlimit="3.25" d="M156.27-64.845
		L-16.781,32.242L179.5,179.332L156.27-64.845z"/>
	<path fill="none" stroke="#000000" stroke-width="0.2" stroke-linecap="square" stroke-miterlimit="3.25" d="M156.27-64.845
		L-16.781,32.242L179.5,179.332L156.27-64.845z"/>
	<path fill="#FFFFFF" stroke="#FFFFFF" stroke-width="0.2" stroke-linecap="square" stroke-miterlimit="3.25" d="M-16.781,32.242
		l-44.604,193.346L179.5,179.332L-16.781,32.242z"/>
	<path fill="none" stroke="#000000" stroke-width="0.2" stroke-linecap="square" stroke-miterlimit="3.25" d="M-16.781,32.242
		l-44.604,193.346L179.5,179.332L-16.781,32.242z"/>
	<path fill="#FFFFFF" stroke="#FFFFFF" stroke-width="0.2" stroke-linecap="square" stroke-miterlimit="3.25" d="M-61.385,225.588
		L51.654,388.669L179.5,179.332L-61.385,225.588z"/>
	<path fill="none" stroke="#000000" stroke-width="0.2" stroke-linecap="square" stroke-miterlimit="3.25" d="M-61.385,225.588
		L51.654,388.669L179.5,179.332L-61.385,225.588z"/>
	<path fill="#FFFFFF" stroke="#FFFFFF" stroke-width="0.2" stroke-linecap="square" stroke-miterlimit="3.25" d="M51.654,388.669
		l196.704,26.083L179.5,179.332L51.654,388.669z"/>
	<path fill="none" stroke="#000000" stroke-width="0.2" stroke-linecap="square" stroke-miterlimit="3.25" d="M51.654,388.669
		l196.704,26.083L179.5,179.332L51.654,388.669z"/>
	<path fill="none" stroke="#000000" stroke-linecap="square" stroke-miterlimit="3.25" d="M424.783,179.332
		c0-65.049-25.844-127.44-71.844-173.439c-45.999-46-108.385-71.838-173.439-71.838S52.06-40.107,6.06,5.893
		c-46,46-71.843,108.391-71.843,173.439c0,65.055,25.844,127.446,71.843,173.445c46,46,108.385,71.838,173.44,71.838
		s127.44-25.838,173.439-71.838C398.94,306.778,424.783,244.387,424.783,179.332z"/>
</g>
</svg>
