<?xml version="1.0" encoding="utf-8"?>
<!-- Generator: Adobe Illustrator 16.0.0, SVG Export Plug-In . SVG Version: 6.00 Build 0)  -->
<!DOCTYPE svg PUBLIC "-//W3C//DTD SVG 1.1//EN" "http://www.w3.org/Graphics/SVG/1.1/DTD/svg11.dtd">
<svg version="1.1" id="Layer_1" xmlns="http://www.w3.org/2000/svg" xmlns:xlink="http://www.w3.org/1999/xlink" x="0px" y="0px"
	 width="345.641px" height="345.637px" viewBox="6.68 6.395 345.641 345.637" enable-background="new 6.68 6.395 345.641 345.637"
	 xml:space="preserve">
<g id="surface148">
	<path fill="#FFFFFF" stroke="#FFFFFF" stroke-width="0.2" stroke-linecap="square" stroke-miterlimit="3.25" d="M351.821,179.211
		L262.293,28.086L179.5,179.211H351.821z"/>
	<path fill="none" stroke="#000000" stroke-width="0.2" stroke-linecap="square" stroke-miterlimit="3.25" d="M351.821,179.211
		L262.293,28.086L179.5,179.211H351.821z"/>
	<path fill="#FFFFFF" stroke="#FFFFFF" stroke-width="0.2" stroke-linecap="square" stroke-miterlimit="3.25" d="M262.293,28.086
		L86.739,33.992L179.5,179.211L262.293,28.086z"/>
	<path fill="none" stroke="#000000" stroke-width="0.2" stroke-linecap="square" stroke-miterlimit="3.25" d="M262.293,28.086
		L86.739,33.992L179.5,179.211L262.293,28.086z"/>
	<path fill="#FFFFFF" stroke="#FFFFFF" stroke-width="0.2" stroke-linecap="square" stroke-miterlimit="3.25" d="M86.739,33.992
		L7.571,190.797l171.93-11.586L86.739,33.992z"/>
	<path fill="none" stroke="#000000" stroke-width="0.2" stroke-linecap="square" stroke-miterlimit="3.25" d="M86.739,33.992
		L7.571,190.797l171.93-11.586L86.739,33.992z"/>
	<path fill="none" stroke="#000000" stroke-linecap="square" stroke-miterlimit="3.25" d="M351.821,179.211
		c0-45.699-18.156-89.531-50.473-121.848S225.203,6.895,179.5,6.895S89.969,25.047,57.653,57.363S7.18,133.512,7.18,179.211
		c0,45.703,18.156,89.535,50.473,121.852s76.145,50.469,121.848,50.469s89.531-18.152,121.848-50.469
		S351.821,224.914,351.821,179.211z"/>
</g>
</svg>
