<?xml version="1.0" encoding="UTF-8"?>
<svg xmlns="http://www.w3.org/2000/svg" xmlns:xlink="http://www.w3.org/1999/xlink" width="360pt" height="313pt" viewBox="0 0 360 313" version="1.1">
<g id="surface243">
<path style="fill:none;stroke-width:0.2;stroke-linecap:square;stroke-linejoin:miter;stroke:rgb(0%,0%,0%);stroke-opacity:1;stroke-miterlimit:3.25;" d="M 179.5 6.894531 L 7.179688 305.359375 L 351.820313 305.359375 Z M 179.5 6.894531 "/>
<path style="fill:none;stroke-width:0.2;stroke-linecap:square;stroke-linejoin:miter;stroke:rgb(0%,0%,0%);stroke-opacity:1;stroke-miterlimit:3.25;" d="M 179.5 305.359375 L 93.339844 156.125 L 265.660156 156.125 Z M 179.5 305.359375 "/>
<path style=" stroke:none;fill-rule:evenodd;fill:rgb(0%,0%,0%);fill-opacity:1;" d="M 179.796875 265.5625 C 179.796875 265.484375 179.765625 265.410156 179.710938 265.351563 C 179.65625 265.296875 179.578125 265.265625 179.5 265.265625 C 179.421875 265.265625 179.34375 265.296875 179.289063 265.351563 C 179.234375 265.410156 179.203125 265.484375 179.203125 265.5625 C 179.203125 265.644531 179.234375 265.71875 179.289063 265.773438 C 179.34375 265.832031 179.421875 265.863281 179.5 265.863281 C 179.578125 265.863281 179.65625 265.832031 179.710938 265.773438 C 179.765625 265.71875 179.796875 265.644531 179.796875 265.5625 Z M 179.796875 265.5625 "/>
<path style=" stroke:none;fill-rule:evenodd;fill:rgb(0%,0%,0%);fill-opacity:1;" d="M 128.101563 176.023438 C 128.101563 175.945313 128.070313 175.867188 128.015625 175.8125 C 127.960938 175.757813 127.882813 175.726563 127.804688 175.726563 C 127.726563 175.726563 127.648438 175.757813 127.59375 175.8125 C 127.535156 175.867188 127.503906 175.945313 127.503906 176.023438 C 127.503906 176.101563 127.535156 176.179688 127.59375 176.234375 C 127.648438 176.292969 127.726563 176.324219 127.804688 176.324219 C 127.882813 176.324219 127.960938 176.292969 128.015625 176.234375 C 128.070313 176.179688 128.101563 176.101563 128.101563 176.023438 Z M 128.101563 176.023438 "/>
<path style=" stroke:none;fill-rule:evenodd;fill:rgb(0%,0%,0%);fill-opacity:1;" d="M 231.496094 176.023438 C 231.496094 175.945313 231.464844 175.867188 231.40625 175.8125 C 231.351563 175.757813 231.273438 175.726563 231.195313 175.726563 C 231.117188 175.726563 231.039063 175.757813 230.984375 175.8125 C 230.929688 175.867188 230.898438 175.945313 230.898438 176.023438 C 230.898438 176.101563 230.929688 176.179688 230.984375 176.234375 C 231.039063 176.292969 231.117188 176.324219 231.195313 176.324219 C 231.273438 176.324219 231.351563 176.292969 231.40625 176.234375 C 231.464844 176.179688 231.496094 176.101563 231.496094 176.023438 Z M 231.496094 176.023438 "/>
</g>
</svg>
