<?xml version="1.0" encoding="utf-8"?>
<!-- Generator: Adobe Illustrator 16.0.0, SVG Export Plug-In . SVG Version: 6.00 Build 0)  -->
<!DOCTYPE svg PUBLIC "-//W3C//DTD SVG 1.1//EN" "http://www.w3.org/Graphics/SVG/1.1/DTD/svg11.dtd">
<svg version="1.1" id="Layer_1" xmlns="http://www.w3.org/2000/svg" xmlns:xlink="http://www.w3.org/1999/xlink" x="0px" y="0px"
	 width="566.929px" height="850.394px" viewBox="-103.464 -374.697 566.929 850.394"
	 enable-background="new -103.464 -374.697 566.929 850.394" xml:space="preserve">
<g id="surface188">
	<path fill="none" stroke="#000000" stroke-width="0.2" stroke-linecap="square" stroke-miterlimit="3.25" d="M-75.117-173.158
		v85.039H9.922v-85.039H-75.117z"/>
	<path fill="none" stroke="#000000" stroke-width="0.2" stroke-linecap="square" stroke-miterlimit="3.25" d="M-75.117-88.119v85.04
		H9.922v-85.04H-75.117z"/>
	<path fill="none" stroke="#000000" stroke-width="0.2" stroke-linecap="square" stroke-miterlimit="3.25" d="M-75.117-173.158
		v-85.04H9.922v85.04H-75.117z"/>
	<path fill="none" stroke="#000000" stroke-width="0.2" stroke-linecap="square" stroke-miterlimit="3.25" d="M-75.117-258.198
		v-85.039H9.922v85.039H-75.117z"/>
</g>
<g id="surface188_1_">
	<path fill="none" stroke="#000000" stroke-width="0.2" stroke-linecap="square" stroke-miterlimit="3.25" d="M-75.117,167v85.039
		H9.922V167H-75.117z"/>
	<path fill="none" stroke="#000000" stroke-width="0.2" stroke-linecap="square" stroke-miterlimit="3.25" d="M-75.117,252.039
		v85.04H9.922v-85.04H-75.117z"/>
	<path fill="none" stroke="#000000" stroke-width="0.2" stroke-linecap="square" stroke-miterlimit="3.25" d="M-75.117,167V81.96
		H9.922V167H-75.117z"/>
	<path fill="none" stroke="#000000" stroke-width="0.2" stroke-linecap="square" stroke-miterlimit="3.25" d="M-75.117,81.96V-3.079
		H9.922V81.96H-75.117z"/>
</g>
<g id="surface188_3_">
	<path fill="none" stroke="#000000" stroke-width="0.2" stroke-linecap="square" stroke-miterlimit="3.25" d="M9.922-173.158v85.039
		h85.039v-85.039H9.922z"/>
	<path fill="none" stroke="#000000" stroke-width="0.2" stroke-linecap="square" stroke-miterlimit="3.25" d="M9.922-88.119v85.04
		h85.039v-85.04H9.922z"/>
	<path fill="none" stroke="#000000" stroke-width="0.2" stroke-linecap="square" stroke-miterlimit="3.25" d="M9.922-173.158v-85.04
		h85.039v85.04H9.922z"/>
	<path fill="none" stroke="#000000" stroke-width="0.2" stroke-linecap="square" stroke-miterlimit="3.25" d="M9.922-258.198
		v-85.039h85.039v85.039H9.922z"/>
</g>
<g id="surface188_2_">
	<path fill="none" stroke="#000000" stroke-width="0.2" stroke-linecap="square" stroke-miterlimit="3.25" d="M9.922,167v85.039
		h85.039V167H9.922z"/>
	<path fill="none" stroke="#000000" stroke-width="0.2" stroke-linecap="square" stroke-miterlimit="3.25" d="M9.922,252.039v85.04
		h85.039v-85.04H9.922z"/>
	<path fill="none" stroke="#000000" stroke-width="0.2" stroke-linecap="square" stroke-miterlimit="3.25" d="M9.922,167V81.96
		h85.039V167H9.922z"/>
	<path fill="none" stroke="#000000" stroke-width="0.2" stroke-linecap="square" stroke-miterlimit="3.25" d="M9.922,81.96V-3.079
		h85.039V81.96H9.922z"/>
</g>
<g id="surface188_7_">
	<path fill="none" stroke="#000000" stroke-width="0.2" stroke-linecap="square" stroke-miterlimit="3.25" d="M94.961-173.158
		v85.039H180v-85.039H94.961z"/>
	<path fill="none" stroke="#000000" stroke-width="0.2" stroke-linecap="square" stroke-miterlimit="3.25" d="M94.961-88.119v85.04
		H180v-85.04H94.961z"/>
	<path fill="none" stroke="#000000" stroke-width="0.2" stroke-linecap="square" stroke-miterlimit="3.25" d="M94.961-173.158
		v-85.04H180v85.04H94.961z"/>
	<path fill="none" stroke="#000000" stroke-width="0.2" stroke-linecap="square" stroke-miterlimit="3.25" d="M94.961-258.198
		v-85.039H180v85.039H94.961z"/>
</g>
<g id="surface188_6_">
	<path fill="none" stroke="#000000" stroke-width="0.2" stroke-linecap="square" stroke-miterlimit="3.25" d="M94.961,167v85.039
		H180V167H94.961z"/>
	<path fill="none" stroke="#000000" stroke-width="0.2" stroke-linecap="square" stroke-miterlimit="3.25" d="M94.961,252.039v85.04
		H180v-85.04H94.961z"/>
	<path fill="none" stroke="#000000" stroke-width="0.2" stroke-linecap="square" stroke-miterlimit="3.25" d="M94.961,167V81.96H180
		V167H94.961z"/>
	<path fill="none" stroke="#000000" stroke-width="0.2" stroke-linecap="square" stroke-miterlimit="3.25" d="M94.961,81.96V-3.079
		H180V81.96H94.961z"/>
</g>
<g id="surface188_5_">
	<path fill="none" stroke="#000000" stroke-width="0.2" stroke-linecap="square" stroke-miterlimit="3.25" d="M180-173.158v85.039
		h85.039v-85.039H180z"/>
	<path fill="none" stroke="#000000" stroke-width="0.2" stroke-linecap="square" stroke-miterlimit="3.25" d="M180-88.119v85.04
		h85.039v-85.04H180z"/>
	<path fill="none" stroke="#000000" stroke-width="0.2" stroke-linecap="square" stroke-miterlimit="3.25" d="M180-173.158v-85.04
		h85.039v85.04H180z"/>
	<path fill="none" stroke="#000000" stroke-width="0.2" stroke-linecap="square" stroke-miterlimit="3.25" d="M180-258.198v-85.039
		h85.039v85.039H180z"/>
</g>
<g id="surface188_4_">
	<path fill="none" stroke="#000000" stroke-width="0.2" stroke-linecap="square" stroke-miterlimit="3.25" d="M180,167v85.039
		h85.039V167H180z"/>
	<path fill="none" stroke="#000000" stroke-width="0.2" stroke-linecap="square" stroke-miterlimit="3.25" d="M180,252.039v85.04
		h85.039v-85.04H180z"/>
	<path fill="none" stroke="#000000" stroke-width="0.2" stroke-linecap="square" stroke-miterlimit="3.25" d="M180,167V81.96h85.039
		V167H180z"/>
	<path fill="none" stroke="#000000" stroke-width="0.2" stroke-linecap="square" stroke-miterlimit="3.25" d="M180,81.96V-3.079
		h85.039V81.96H180z"/>
</g>
<g id="surface188_11_">
	<path fill="none" stroke="#000000" stroke-width="0.2" stroke-linecap="square" stroke-miterlimit="3.25" d="M265.039-173.158
		v85.039h85.039v-85.039H265.039z"/>
	<path fill="none" stroke="#000000" stroke-width="0.2" stroke-linecap="square" stroke-miterlimit="3.25" d="M265.039-88.119v85.04
		h85.039v-85.04H265.039z"/>
	<path fill="none" stroke="#000000" stroke-width="0.2" stroke-linecap="square" stroke-miterlimit="3.25" d="M265.039-173.158
		v-85.04h85.039v85.04H265.039z"/>
	<path fill="none" stroke="#000000" stroke-width="0.2" stroke-linecap="square" stroke-miterlimit="3.25" d="M265.039-258.198
		v-85.039h85.039v85.039H265.039z"/>
</g>
<g id="surface188_10_">
	<path fill="none" stroke="#000000" stroke-width="0.2" stroke-linecap="square" stroke-miterlimit="3.25" d="M265.039,167v85.039
		h85.039V167H265.039z"/>
	<path fill="none" stroke="#000000" stroke-width="0.2" stroke-linecap="square" stroke-miterlimit="3.25" d="M265.039,252.039
		v85.04h85.039v-85.04H265.039z"/>
	<path fill="none" stroke="#000000" stroke-width="0.2" stroke-linecap="square" stroke-miterlimit="3.25" d="M265.039,167V81.96
		h85.039V167H265.039z"/>
	<path fill="none" stroke="#000000" stroke-width="0.2" stroke-linecap="square" stroke-miterlimit="3.25" d="M265.039,81.96V-3.079
		h85.039V81.96H265.039z"/>
</g>
<g id="surface188_9_">
	<path fill="none" stroke="#000000" stroke-width="0.2" stroke-linecap="square" stroke-miterlimit="3.25" d="M350.078-173.158
		v85.039h85.039v-85.039H350.078z"/>
	<path fill="none" stroke="#000000" stroke-width="0.2" stroke-linecap="square" stroke-miterlimit="3.25" d="M350.078-88.119v85.04
		h85.039v-85.04H350.078z"/>
	<path fill="none" stroke="#000000" stroke-width="0.2" stroke-linecap="square" stroke-miterlimit="3.25" d="M350.078-173.158
		v-85.04h85.039v85.04H350.078z"/>
	<path fill="none" stroke="#000000" stroke-width="0.2" stroke-linecap="square" stroke-miterlimit="3.25" d="M350.078-258.198
		v-85.039h85.039v85.039H350.078z"/>
</g>
<g id="surface188_8_">
	<path fill="none" stroke="#000000" stroke-width="0.2" stroke-linecap="square" stroke-miterlimit="3.25" d="M350.078,167v85.039
		h85.039V167H350.078z"/>
	<path fill="none" stroke="#000000" stroke-width="0.2" stroke-linecap="square" stroke-miterlimit="3.25" d="M350.078,252.039
		v85.04h85.039v-85.04H350.078z"/>
	<path fill="none" stroke="#000000" stroke-width="0.2" stroke-linecap="square" stroke-miterlimit="3.25" d="M350.078,167V81.96
		h85.039V167H350.078z"/>
	<path fill="none" stroke="#000000" stroke-width="0.2" stroke-linecap="square" stroke-miterlimit="3.25" d="M350.078,81.96V-3.079
		h85.039V81.96H350.078z"/>
</g>
</svg>
