<?xml version="1.0" encoding="UTF-8" standalone="no"?>
<!-- Generator: Adobe Illustrator 16.0.0, SVG Export Plug-In . SVG Version: 6.00 Build 0)  -->

<svg
   xmlns:dc="http://purl.org/dc/elements/1.1/"
   xmlns:cc="http://creativecommons.org/ns#"
   xmlns:rdf="http://www.w3.org/1999/02/22-rdf-syntax-ns#"
   xmlns:svg="http://www.w3.org/2000/svg"
   xmlns="http://www.w3.org/2000/svg"
   xmlns:sodipodi="http://sodipodi.sourceforge.net/DTD/sodipodi-0.dtd"
   xmlns:inkscape="http://www.inkscape.org/namespaces/inkscape"
   version="1.1"
   id="Layer_1"
   x="0px"
   y="0px"
   width="210mm"
   height="297mm"
   viewBox="0 0 793.70075 1122.5197"
   enable-background="new 0 0 595.28 841.89"
   xml:space="preserve"
   sodipodi:docname="HELIKOPTER.svg"
   inkscape:version="0.92.4 (5da689c313, 2019-01-14)"><metadata
   id="metadata106"><rdf:RDF><cc:Work
       rdf:about=""><dc:format>image/svg+xml</dc:format><dc:type
         rdf:resource="http://purl.org/dc/dcmitype/StillImage" /><dc:title></dc:title></cc:Work></rdf:RDF></metadata><defs
   id="defs104" /><sodipodi:namedview
   pagecolor="#ffffff"
   bordercolor="#666666"
   borderopacity="1"
   objecttolerance="10"
   gridtolerance="10"
   guidetolerance="10"
   inkscape:pageopacity="0"
   inkscape:pageshadow="2"
   inkscape:window-width="1920"
   inkscape:window-height="1057"
   id="namedview102"
   showgrid="false"
   units="mm"
   inkscape:document-units="mm"
   inkscape:zoom="0.70460071"
   inkscape:cx="139.09089"
   inkscape:cy="681.46961"
   inkscape:window-x="-8"
   inkscape:window-y="-8"
   inkscape:window-maximized="1"
   inkscape:current-layer="Layer_1" />
<g
   id="surface64"
   transform="matrix(1.3329901,0,0,1.3329901,-2.3452622,-7.9043819)">
	<path
   stroke-miterlimit="3.25"
   d="M 78.926,30.903 H 41.24 v 288.535 l 18.843,113.054 v 339.146 h 37.68 V 432.492 L 116.607,319.438 V 30.903 H 78.926 v 213.168 z"
   id="path2"
   inkscape:connector-curvature="0"
   style="fill:#ffffff;stroke:#ffffff;stroke-width:0.2;stroke-linecap:square;stroke-miterlimit:3.25" />
	<path
   stroke-miterlimit="3.25"
   d="M 78.926,30.903 H 41.24 v 288.535 l 18.843,113.054 v 339.146 h 37.68 V 432.492 L 116.607,319.438 V 30.903 H 78.926 v 213.168 z"
   id="path4"
   inkscape:connector-curvature="0"
   style="fill:#ffffff;stroke:#010101;stroke-width:0.2;stroke-linecap:square;stroke-miterlimit:3.25" />
	<path
   stroke-miterlimit="3.25"
   d="m 60.083,771.639 v 39.348 h 37.68 v -39.348 z"
   id="path6"
   inkscape:connector-curvature="0"
   style="fill:#ffffff;stroke:#ffffff;stroke-width:0.2;stroke-linecap:square;stroke-miterlimit:3.25" />
	<path
   stroke-miterlimit="3.25"
   d="m 60.083,771.639 v 39.348 h 37.68 v -39.348 z"
   id="path8"
   inkscape:connector-curvature="0"
   style="fill:#ffffff;stroke:#010101;stroke-width:0.2;stroke-linecap:square;stroke-miterlimit:3.25" />
	
		<path
   stroke-miterlimit="3.25"
   d="M 78.926,244.071 V 457.24"
   id="path10"
   inkscape:connector-curvature="0"
   style="fill:#ffffff;stroke:#010101;stroke-width:0.0864;stroke-linecap:square;stroke-miterlimit:3.25;stroke-dasharray:1, 4" />
</g>
<g
   id="surface64_8_"
   transform="matrix(1.3329901,0,0,1.3329901,-2.3452622,-7.9043819)">
	<path
   stroke-miterlimit="3.25"
   d="m 531.113,30.903 h -37.688 v 288.535 l 18.844,113.054 v 339.146 h 37.68 V 432.492 L 568.793,319.438 V 30.903 h -37.68 v 213.168 z"
   id="path13"
   inkscape:connector-curvature="0"
   style="fill:#ffffff;stroke:#ffffff;stroke-width:0.2;stroke-linecap:square;stroke-miterlimit:3.25" />
	<path
   stroke-miterlimit="3.25"
   d="m 531.113,30.903 h -37.688 v 288.535 l 18.844,113.054 v 339.146 h 37.68 V 432.492 L 568.793,319.438 V 30.903 h -37.68 v 213.168 z"
   id="path15"
   inkscape:connector-curvature="0"
   style="fill:#ffffff;stroke:#010101;stroke-width:0.2;stroke-linecap:square;stroke-miterlimit:3.25" />
	<path
   stroke-miterlimit="3.25"
   d="m 512.27,771.639 v 39.348 h 37.68 v -39.348 z"
   id="path17"
   inkscape:connector-curvature="0"
   style="fill:#ffffff;stroke:#ffffff;stroke-width:0.2;stroke-linecap:square;stroke-miterlimit:3.25" />
	<path
   stroke-miterlimit="3.25"
   d="m 512.27,771.639 v 39.348 h 37.68 v -39.348 z"
   id="path19"
   inkscape:connector-curvature="0"
   style="fill:#ffffff;stroke:#010101;stroke-width:0.2;stroke-linecap:square;stroke-miterlimit:3.25" />
	
		<path
   stroke-miterlimit="3.25"
   d="M 531.113,244.071 V 457.24"
   id="path21"
   inkscape:connector-curvature="0"
   style="fill:#ffffff;stroke:#010101;stroke-width:0.0864;stroke-linecap:square;stroke-miterlimit:3.25;stroke-dasharray:1, 4" />
</g>
<g
   id="surface64_1_"
   transform="matrix(1.3329901,0,0,1.3329901,-2.3452622,-7.9043819)">
	<path
   stroke-miterlimit="3.25"
   d="m 135.442,810.986 h 37.687 V 522.45 L 154.286,409.397 V 70.25 h -37.68 V 409.396 L 97.763,522.45 v 288.536 h 37.679 V 597.817 Z"
   id="path24"
   inkscape:connector-curvature="0"
   style="fill:#ffffff;stroke:#ffffff;stroke-width:0.2;stroke-linecap:square;stroke-miterlimit:3.25" />
	<path
   stroke-miterlimit="3.25"
   d="m 135.442,810.986 h 37.687 V 522.45 L 154.286,409.397 V 70.25 h -37.68 V 409.396 L 97.763,522.45 v 288.536 h 37.679 V 597.817 Z"
   id="path26"
   inkscape:connector-curvature="0"
   style="fill:#ffffff;stroke:#010101;stroke-width:0.2;stroke-linecap:square;stroke-miterlimit:3.25" />
	<path
   stroke-miterlimit="3.25"
   d="M 154.286,70.25 V 30.903 h -37.68 V 70.25 Z"
   id="path28"
   inkscape:connector-curvature="0"
   style="fill:#ffffff;stroke:#ffffff;stroke-width:0.2;stroke-linecap:square;stroke-miterlimit:3.25" />
	<path
   stroke-miterlimit="3.25"
   d="M 154.286,70.25 V 30.903 h -37.68 V 70.25 Z"
   id="path30"
   inkscape:connector-curvature="0"
   style="fill:#ffffff;stroke:#010101;stroke-width:0.2;stroke-linecap:square;stroke-miterlimit:3.25" />
	
		<path
   stroke-miterlimit="3.25"
   d="M 135.442,597.817 V 384.648"
   id="path32"
   inkscape:connector-curvature="0"
   style="fill:#ffffff;stroke:#010101;stroke-width:0.0864;stroke-linecap:square;stroke-miterlimit:3.25;stroke-dasharray:1, 4" />
</g>
<g
   id="surface64_3_"
   transform="matrix(1.3329901,0,0,1.3329901,-2.3452622,-7.9043819)">
	<path
   stroke-miterlimit="3.25"
   d="m 191.973,30.903 h -37.687 v 288.535 l 18.843,113.054 v 339.146 h 37.68 V 432.492 L 229.653,319.438 V 30.903 h -37.68 v 213.168 z"
   id="path35"
   inkscape:connector-curvature="0"
   style="fill:#ffffff;stroke:#ffffff;stroke-width:0.2;stroke-linecap:square;stroke-miterlimit:3.25" />
	<path
   stroke-miterlimit="3.25"
   d="m 191.973,30.903 h -37.687 v 288.535 l 18.843,113.054 v 339.146 h 37.68 V 432.492 L 229.653,319.438 V 30.903 h -37.68 v 213.168 z"
   id="path37"
   inkscape:connector-curvature="0"
   style="fill:#ffffff;stroke:#010101;stroke-width:0.2;stroke-linecap:square;stroke-miterlimit:3.25" />
	<path
   stroke-miterlimit="3.25"
   d="m 173.129,771.639 v 39.348 h 37.68 v -39.348 z"
   id="path39"
   inkscape:connector-curvature="0"
   style="fill:#ffffff;stroke:#ffffff;stroke-width:0.2;stroke-linecap:square;stroke-miterlimit:3.25" />
	<path
   stroke-miterlimit="3.25"
   d="m 173.129,771.639 v 39.348 h 37.68 v -39.348 z"
   id="path41"
   inkscape:connector-curvature="0"
   style="fill:#ffffff;stroke:#010101;stroke-width:0.2;stroke-linecap:square;stroke-miterlimit:3.25" />
	
		<path
   stroke-miterlimit="3.25"
   d="M 191.973,244.071 V 457.24"
   id="path43"
   inkscape:connector-curvature="0"
   style="fill:#ffffff;stroke:#010101;stroke-width:0.0864;stroke-linecap:square;stroke-miterlimit:3.25;stroke-dasharray:1, 4" />
</g>
<g
   id="surface64_2_"
   transform="matrix(1.3329901,0,0,1.3329901,-2.3452622,-7.9043819)">
	<path
   stroke-miterlimit="3.25"
   d="m 248.489,810.986 h 37.687 V 522.45 L 267.333,409.397 V 70.25 h -37.68 V 409.396 L 210.809,522.45 v 288.536 h 37.68 V 597.817 Z"
   id="path46"
   inkscape:connector-curvature="0"
   style="fill:#ffffff;stroke:#ffffff;stroke-width:0.2;stroke-linecap:square;stroke-miterlimit:3.25" />
	<path
   stroke-miterlimit="3.25"
   d="m 248.489,810.986 h 37.687 V 522.45 L 267.333,409.397 V 70.25 h -37.68 V 409.396 L 210.809,522.45 v 288.536 h 37.68 V 597.817 Z"
   id="path48"
   inkscape:connector-curvature="0"
   style="fill:#ffffff;stroke:#010101;stroke-width:0.2;stroke-linecap:square;stroke-miterlimit:3.25" />
	<path
   stroke-miterlimit="3.25"
   d="M 267.333,70.25 V 30.903 h -37.68 V 70.25 Z"
   id="path50"
   inkscape:connector-curvature="0"
   style="fill:#ffffff;stroke:#ffffff;stroke-width:0.2;stroke-linecap:square;stroke-miterlimit:3.25" />
	<path
   stroke-miterlimit="3.25"
   d="M 267.333,70.25 V 30.903 h -37.68 V 70.25 Z"
   id="path52"
   inkscape:connector-curvature="0"
   style="fill:#ffffff;stroke:#010101;stroke-width:0.2;stroke-linecap:square;stroke-miterlimit:3.25" />
	
		<path
   stroke-miterlimit="3.25"
   d="M 248.489,597.817 V 384.648"
   id="path54"
   inkscape:connector-curvature="0"
   style="fill:#ffffff;stroke:#010101;stroke-width:0.0864;stroke-linecap:square;stroke-miterlimit:3.25;stroke-dasharray:1, 4" />
</g>
<g
   id="surface64_7_"
   transform="matrix(1.3329901,0,0,1.3329901,-2.3452622,-7.9043819)">
	<path
   stroke-miterlimit="3.25"
   d="m 305.02,30.903 h -37.687 v 288.535 l 18.843,113.054 v 339.146 h 37.68 V 432.492 L 342.7,319.438 V 30.903 h -37.68 v 213.168 z"
   id="path57"
   inkscape:connector-curvature="0"
   style="fill:#ffffff;stroke:#ffffff;stroke-width:0.2;stroke-linecap:square;stroke-miterlimit:3.25" />
	<path
   stroke-miterlimit="3.25"
   d="m 305.02,30.903 h -37.687 v 288.535 l 18.843,113.054 v 339.146 h 37.68 V 432.492 L 342.7,319.438 V 30.903 h -37.68 v 213.168 z"
   id="path59"
   inkscape:connector-curvature="0"
   style="fill:#ffffff;stroke:#010101;stroke-width:0.2;stroke-linecap:square;stroke-miterlimit:3.25" />
	<path
   stroke-miterlimit="3.25"
   d="m 286.176,771.639 v 39.348 h 37.68 v -39.348 z"
   id="path61"
   inkscape:connector-curvature="0"
   style="fill:#ffffff;stroke:#ffffff;stroke-width:0.2;stroke-linecap:square;stroke-miterlimit:3.25" />
	<path
   stroke-miterlimit="3.25"
   d="m 286.176,771.639 v 39.348 h 37.68 v -39.348 z"
   id="path63"
   inkscape:connector-curvature="0"
   style="fill:#ffffff;stroke:#010101;stroke-width:0.2;stroke-linecap:square;stroke-miterlimit:3.25" />
	
		<path
   stroke-miterlimit="3.25"
   d="M 305.02,244.071 V 457.24"
   id="path65"
   inkscape:connector-curvature="0"
   style="fill:#ffffff;stroke:#010101;stroke-width:0.0864;stroke-linecap:square;stroke-miterlimit:3.25;stroke-dasharray:1, 4" />
</g>
<g
   id="surface64_6_"
   transform="matrix(1.3329901,0,0,1.3329901,-2.3452622,-7.9043819)">
	<path
   stroke-miterlimit="3.25"
   d="m 361.535,810.986 h 37.688 V 522.45 L 380.379,409.397 V 70.25 h -37.68 V 409.396 L 323.855,522.45 v 288.536 h 37.68 V 597.817 Z"
   id="path68"
   inkscape:connector-curvature="0"
   style="fill:#ffffff;stroke:#ffffff;stroke-width:0.2;stroke-linecap:square;stroke-miterlimit:3.25" />
	<path
   stroke-miterlimit="3.25"
   d="m 361.535,810.986 h 37.688 V 522.45 L 380.379,409.397 V 70.25 h -37.68 V 409.396 L 323.855,522.45 v 288.536 h 37.68 V 597.817 Z"
   id="path70"
   inkscape:connector-curvature="0"
   style="fill:#ffffff;stroke:#010101;stroke-width:0.2;stroke-linecap:square;stroke-miterlimit:3.25" />
	<path
   stroke-miterlimit="3.25"
   d="M 380.379,70.25 V 30.903 h -37.68 V 70.25 Z"
   id="path72"
   inkscape:connector-curvature="0"
   style="fill:#ffffff;stroke:#ffffff;stroke-width:0.2;stroke-linecap:square;stroke-miterlimit:3.25" />
	<path
   stroke-miterlimit="3.25"
   d="M 380.379,70.25 V 30.903 h -37.68 V 70.25 Z"
   id="path74"
   inkscape:connector-curvature="0"
   style="fill:#ffffff;stroke:#010101;stroke-width:0.2;stroke-linecap:square;stroke-miterlimit:3.25" />
	
		<path
   stroke-miterlimit="3.25"
   d="M 361.535,597.817 V 384.648"
   id="path76"
   inkscape:connector-curvature="0"
   style="fill:#ffffff;stroke:#010101;stroke-width:0.0864;stroke-linecap:square;stroke-miterlimit:3.25;stroke-dasharray:1, 4" />
</g>
<g
   id="surface64_5_"
   transform="matrix(1.3329901,0,0,1.3329901,-2.3452622,-7.9043819)">
	<path
   stroke-miterlimit="3.25"
   d="m 418.066,30.903 h -37.688 v 288.535 l 18.844,113.054 v 339.146 h 37.68 V 432.492 L 455.746,319.438 V 30.903 h -37.68 v 213.168 z"
   id="path79"
   inkscape:connector-curvature="0"
   style="fill:#ffffff;stroke:#ffffff;stroke-width:0.2;stroke-linecap:square;stroke-miterlimit:3.25" />
	<path
   stroke-miterlimit="3.25"
   d="m 418.066,30.903 h -37.688 v 288.535 l 18.844,113.054 v 339.146 h 37.68 V 432.492 L 455.746,319.438 V 30.903 h -37.68 v 213.168 z"
   id="path81"
   inkscape:connector-curvature="0"
   style="fill:#ffffff;stroke:#010101;stroke-width:0.2;stroke-linecap:square;stroke-miterlimit:3.25" />
	<path
   stroke-miterlimit="3.25"
   d="m 399.223,771.639 v 39.348 h 37.68 v -39.348 z"
   id="path83"
   inkscape:connector-curvature="0"
   style="fill:#ffffff;stroke:#ffffff;stroke-width:0.2;stroke-linecap:square;stroke-miterlimit:3.25" />
	<path
   stroke-miterlimit="3.25"
   d="m 399.223,771.639 v 39.348 h 37.68 v -39.348 z"
   id="path85"
   inkscape:connector-curvature="0"
   style="fill:#ffffff;stroke:#010101;stroke-width:0.2;stroke-linecap:square;stroke-miterlimit:3.25" />
	
		<path
   stroke-miterlimit="3.25"
   d="M 418.066,244.071 V 457.24"
   id="path87"
   inkscape:connector-curvature="0"
   style="fill:#ffffff;stroke:#010101;stroke-width:0.0864;stroke-linecap:square;stroke-miterlimit:3.25;stroke-dasharray:1, 4" />
</g>
<g
   id="surface64_4_"
   transform="matrix(1.3329901,0,0,1.3329901,-2.3452622,-7.9043819)">
	<path
   stroke-miterlimit="3.25"
   d="M 474.582,810.986 H 512.27 V 522.45 L 493.426,409.397 V 70.25 h -37.68 V 409.396 L 436.902,522.45 v 288.536 h 37.68 V 597.817 Z"
   id="path90"
   inkscape:connector-curvature="0"
   style="fill:#ffffff;stroke:#ffffff;stroke-width:0.2;stroke-linecap:square;stroke-miterlimit:3.25" />
	<path
   stroke-miterlimit="3.25"
   d="M 474.582,810.986 H 512.27 V 522.45 L 493.426,409.397 V 70.25 h -37.68 V 409.396 L 436.902,522.45 v 288.536 h 37.68 V 597.817 Z"
   id="path92"
   inkscape:connector-curvature="0"
   style="fill:#ffffff;stroke:#010101;stroke-width:0.2;stroke-linecap:square;stroke-miterlimit:3.25" />
	<path
   stroke-miterlimit="3.25"
   d="M 493.426,70.25 V 30.903 h -37.68 V 70.25 Z"
   id="path94"
   inkscape:connector-curvature="0"
   style="fill:#ffffff;stroke:#ffffff;stroke-width:0.2;stroke-linecap:square;stroke-miterlimit:3.25" />
	<path
   stroke-miterlimit="3.25"
   d="M 493.426,70.25 V 30.903 h -37.68 V 70.25 Z"
   id="path96"
   inkscape:connector-curvature="0"
   style="fill:#ffffff;stroke:#010101;stroke-width:0.2;stroke-linecap:square;stroke-miterlimit:3.25" />
	
		<path
   stroke-miterlimit="3.25"
   d="M 474.582,597.817 V 384.648"
   id="path98"
   inkscape:connector-curvature="0"
   style="fill:#ffffff;stroke:#010101;stroke-width:0.0864;stroke-linecap:square;stroke-miterlimit:3.25;stroke-dasharray:1, 4" />
</g>
</svg>