<?xml version="1.0" encoding="utf-8"?>
<!-- Generator: Adobe Illustrator 16.0.0, SVG Export Plug-In . SVG Version: 6.00 Build 0)  -->
<!DOCTYPE svg PUBLIC "-//W3C//DTD SVG 1.1//EN" "http://www.w3.org/Graphics/SVG/1.1/DTD/svg11.dtd">
<svg version="1.1" id="Layer_1" xmlns="http://www.w3.org/2000/svg" xmlns:xlink="http://www.w3.org/1999/xlink" x="0px" y="0px"
	 width="595.28px" height="841.89px" viewBox="0 0 595.28 841.89" enable-background="new 0 0 595.28 841.89" xml:space="preserve">
<g id="surface64">
	<path fill="#FFFFFF" stroke="#FFFFFF" stroke-width="0.2" stroke-linecap="square" stroke-miterlimit="3.25" d="M78.926,30.903
		H41.24v288.535l18.843,113.054v339.146h37.68V432.492l18.844-113.054V30.903H78.926v213.168V30.903z"/>
	<path fill="#FFFFFF" stroke="#010101" stroke-width="0.2" stroke-linecap="square" stroke-miterlimit="3.25" d="M78.926,30.903
		H41.24v288.535l18.843,113.054v339.146h37.68V432.492l18.844-113.054V30.903H78.926v213.168V30.903z"/>
	<path fill="#FFFFFF" stroke="#FFFFFF" stroke-width="0.2" stroke-linecap="square" stroke-miterlimit="3.25" d="M60.083,771.639
		v39.348h37.68v-39.348H60.083z"/>
	<path fill="#FFFFFF" stroke="#010101" stroke-width="0.2" stroke-linecap="square" stroke-miterlimit="3.25" d="M60.083,771.639
		v39.348h37.68v-39.348H60.083z"/>
	
		<path fill="#FFFFFF" stroke="#010101" stroke-width="0.0864" stroke-linecap="square" stroke-miterlimit="3.25" stroke-dasharray="1,4" d="
		M78.926,244.071V457.24"/>
</g>
<g id="surface64_8_">
	<path fill="#FFFFFF" stroke="#FFFFFF" stroke-width="0.2" stroke-linecap="square" stroke-miterlimit="3.25" d="M531.113,30.903
		h-37.688v288.535l18.844,113.054v339.146h37.68V432.492l18.844-113.054V30.903H531.113v213.168V30.903z"/>
	<path fill="#FFFFFF" stroke="#010101" stroke-width="0.2" stroke-linecap="square" stroke-miterlimit="3.25" d="M531.113,30.903
		h-37.688v288.535l18.844,113.054v339.146h37.68V432.492l18.844-113.054V30.903H531.113v213.168V30.903z"/>
	<path fill="#FFFFFF" stroke="#FFFFFF" stroke-width="0.2" stroke-linecap="square" stroke-miterlimit="3.25" d="M512.27,771.639
		v39.348h37.68v-39.348H512.27z"/>
	<path fill="#FFFFFF" stroke="#010101" stroke-width="0.2" stroke-linecap="square" stroke-miterlimit="3.25" d="M512.27,771.639
		v39.348h37.68v-39.348H512.27z"/>
	
		<path fill="#FFFFFF" stroke="#010101" stroke-width="0.0864" stroke-linecap="square" stroke-miterlimit="3.25" stroke-dasharray="1,4" d="
		M531.113,244.071V457.24"/>
</g>
<g id="surface64_1_">
	<path fill="#FFFFFF" stroke="#FFFFFF" stroke-width="0.2" stroke-linecap="square" stroke-miterlimit="3.25" d="M135.442,810.986
		h37.687V522.45l-18.843-113.053V70.25h-37.68v339.146L97.763,522.45v288.536H135.442V597.817V810.986z"/>
	<path fill="#FFFFFF" stroke="#010101" stroke-width="0.2" stroke-linecap="square" stroke-miterlimit="3.25" d="M135.442,810.986
		h37.687V522.45l-18.843-113.053V70.25h-37.68v339.146L97.763,522.45v288.536H135.442V597.817V810.986z"/>
	<path fill="#FFFFFF" stroke="#FFFFFF" stroke-width="0.2" stroke-linecap="square" stroke-miterlimit="3.25" d="M154.286,70.25
		V30.903h-37.68V70.25H154.286z"/>
	<path fill="#FFFFFF" stroke="#010101" stroke-width="0.2" stroke-linecap="square" stroke-miterlimit="3.25" d="M154.286,70.25
		V30.903h-37.68V70.25H154.286z"/>
	
		<path fill="#FFFFFF" stroke="#010101" stroke-width="0.0864" stroke-linecap="square" stroke-miterlimit="3.25" stroke-dasharray="1,4" d="
		M135.442,597.817V384.648"/>
</g>
<g id="surface64_3_">
	<path fill="#FFFFFF" stroke="#FFFFFF" stroke-width="0.2" stroke-linecap="square" stroke-miterlimit="3.25" d="M191.973,30.903
		h-37.687v288.535l18.843,113.054v339.146h37.68V432.492l18.844-113.054V30.903H191.973v213.168V30.903z"/>
	<path fill="#FFFFFF" stroke="#010101" stroke-width="0.2" stroke-linecap="square" stroke-miterlimit="3.25" d="M191.973,30.903
		h-37.687v288.535l18.843,113.054v339.146h37.68V432.492l18.844-113.054V30.903H191.973v213.168V30.903z"/>
	<path fill="#FFFFFF" stroke="#FFFFFF" stroke-width="0.2" stroke-linecap="square" stroke-miterlimit="3.25" d="M173.129,771.639
		v39.348h37.68v-39.348H173.129z"/>
	<path fill="#FFFFFF" stroke="#010101" stroke-width="0.2" stroke-linecap="square" stroke-miterlimit="3.25" d="M173.129,771.639
		v39.348h37.68v-39.348H173.129z"/>
	
		<path fill="#FFFFFF" stroke="#010101" stroke-width="0.0864" stroke-linecap="square" stroke-miterlimit="3.25" stroke-dasharray="1,4" d="
		M191.973,244.071V457.24"/>
</g>
<g id="surface64_2_">
	<path fill="#FFFFFF" stroke="#FFFFFF" stroke-width="0.2" stroke-linecap="square" stroke-miterlimit="3.25" d="M248.489,810.986
		h37.687V522.45l-18.843-113.053V70.25h-37.68v339.146L210.809,522.45v288.536H248.489V597.817V810.986z"/>
	<path fill="#FFFFFF" stroke="#010101" stroke-width="0.2" stroke-linecap="square" stroke-miterlimit="3.25" d="M248.489,810.986
		h37.687V522.45l-18.843-113.053V70.25h-37.68v339.146L210.809,522.45v288.536H248.489V597.817V810.986z"/>
	<path fill="#FFFFFF" stroke="#FFFFFF" stroke-width="0.2" stroke-linecap="square" stroke-miterlimit="3.25" d="M267.333,70.25
		V30.903h-37.68V70.25H267.333z"/>
	<path fill="#FFFFFF" stroke="#010101" stroke-width="0.2" stroke-linecap="square" stroke-miterlimit="3.25" d="M267.333,70.25
		V30.903h-37.68V70.25H267.333z"/>
	
		<path fill="#FFFFFF" stroke="#010101" stroke-width="0.0864" stroke-linecap="square" stroke-miterlimit="3.25" stroke-dasharray="1,4" d="
		M248.489,597.817V384.648"/>
</g>
<g id="surface64_7_">
	<path fill="#FFFFFF" stroke="#FFFFFF" stroke-width="0.2" stroke-linecap="square" stroke-miterlimit="3.25" d="M305.02,30.903
		h-37.687v288.535l18.843,113.054v339.146h37.68V432.492l18.844-113.054V30.903H305.02v213.168V30.903z"/>
	<path fill="#FFFFFF" stroke="#010101" stroke-width="0.2" stroke-linecap="square" stroke-miterlimit="3.25" d="M305.02,30.903
		h-37.687v288.535l18.843,113.054v339.146h37.68V432.492l18.844-113.054V30.903H305.02v213.168V30.903z"/>
	<path fill="#FFFFFF" stroke="#FFFFFF" stroke-width="0.2" stroke-linecap="square" stroke-miterlimit="3.25" d="M286.176,771.639
		v39.348h37.68v-39.348H286.176z"/>
	<path fill="#FFFFFF" stroke="#010101" stroke-width="0.2" stroke-linecap="square" stroke-miterlimit="3.25" d="M286.176,771.639
		v39.348h37.68v-39.348H286.176z"/>
	
		<path fill="#FFFFFF" stroke="#010101" stroke-width="0.0864" stroke-linecap="square" stroke-miterlimit="3.25" stroke-dasharray="1,4" d="
		M305.02,244.071V457.24"/>
</g>
<g id="surface64_6_">
	<path fill="#FFFFFF" stroke="#FFFFFF" stroke-width="0.2" stroke-linecap="square" stroke-miterlimit="3.25" d="M361.535,810.986
		h37.688V522.45l-18.844-113.053V70.25h-37.68v339.146L323.855,522.45v288.536H361.535V597.817V810.986z"/>
	<path fill="#FFFFFF" stroke="#010101" stroke-width="0.2" stroke-linecap="square" stroke-miterlimit="3.25" d="M361.535,810.986
		h37.688V522.45l-18.844-113.053V70.25h-37.68v339.146L323.855,522.45v288.536H361.535V597.817V810.986z"/>
	<path fill="#FFFFFF" stroke="#FFFFFF" stroke-width="0.2" stroke-linecap="square" stroke-miterlimit="3.25" d="M380.379,70.25
		V30.903h-37.68V70.25H380.379z"/>
	<path fill="#FFFFFF" stroke="#010101" stroke-width="0.2" stroke-linecap="square" stroke-miterlimit="3.25" d="M380.379,70.25
		V30.903h-37.68V70.25H380.379z"/>
	
		<path fill="#FFFFFF" stroke="#010101" stroke-width="0.0864" stroke-linecap="square" stroke-miterlimit="3.25" stroke-dasharray="1,4" d="
		M361.535,597.817V384.648"/>
</g>
<g id="surface64_5_">
	<path fill="#FFFFFF" stroke="#FFFFFF" stroke-width="0.2" stroke-linecap="square" stroke-miterlimit="3.25" d="M418.066,30.903
		h-37.688v288.535l18.844,113.054v339.146h37.68V432.492l18.844-113.054V30.903H418.066v213.168V30.903z"/>
	<path fill="#FFFFFF" stroke="#010101" stroke-width="0.2" stroke-linecap="square" stroke-miterlimit="3.25" d="M418.066,30.903
		h-37.688v288.535l18.844,113.054v339.146h37.68V432.492l18.844-113.054V30.903H418.066v213.168V30.903z"/>
	<path fill="#FFFFFF" stroke="#FFFFFF" stroke-width="0.2" stroke-linecap="square" stroke-miterlimit="3.25" d="M399.223,771.639
		v39.348h37.68v-39.348H399.223z"/>
	<path fill="#FFFFFF" stroke="#010101" stroke-width="0.2" stroke-linecap="square" stroke-miterlimit="3.25" d="M399.223,771.639
		v39.348h37.68v-39.348H399.223z"/>
	
		<path fill="#FFFFFF" stroke="#010101" stroke-width="0.0864" stroke-linecap="square" stroke-miterlimit="3.25" stroke-dasharray="1,4" d="
		M418.066,244.071V457.24"/>
</g>
<g id="surface64_4_">
	<path fill="#FFFFFF" stroke="#FFFFFF" stroke-width="0.2" stroke-linecap="square" stroke-miterlimit="3.25" d="M474.582,810.986
		h37.688V522.45l-18.844-113.053V70.25h-37.68v339.146L436.902,522.45v288.536H474.582V597.817V810.986z"/>
	<path fill="#FFFFFF" stroke="#010101" stroke-width="0.2" stroke-linecap="square" stroke-miterlimit="3.25" d="M474.582,810.986
		h37.688V522.45l-18.844-113.053V70.25h-37.68v339.146L436.902,522.45v288.536H474.582V597.817V810.986z"/>
	<path fill="#FFFFFF" stroke="#FFFFFF" stroke-width="0.2" stroke-linecap="square" stroke-miterlimit="3.25" d="M493.426,70.25
		V30.903h-37.68V70.25H493.426z"/>
	<path fill="#FFFFFF" stroke="#010101" stroke-width="0.2" stroke-linecap="square" stroke-miterlimit="3.25" d="M493.426,70.25
		V30.903h-37.68V70.25H493.426z"/>
	
		<path fill="#FFFFFF" stroke="#010101" stroke-width="0.0864" stroke-linecap="square" stroke-miterlimit="3.25" stroke-dasharray="1,4" d="
		M474.582,597.817V384.648"/>
</g>
</svg>
