<?xml version="1.0" encoding="UTF-8" standalone="no"?>
<svg
   xmlns:dc="http://purl.org/dc/elements/1.1/"
   xmlns:cc="http://creativecommons.org/ns#"
   xmlns:rdf="http://www.w3.org/1999/02/22-rdf-syntax-ns#"
   xmlns:svg="http://www.w3.org/2000/svg"
   xmlns="http://www.w3.org/2000/svg"
   xmlns:sodipodi="http://sodipodi.sourceforge.net/DTD/sodipodi-0.dtd"
   xmlns:inkscape="http://www.inkscape.org/namespaces/inkscape"
   width="210mm"
   height="297mm"
   viewBox="0 0 595.27559 841.88976"
   version="1.1"
   id="svg13"
   sodipodi:docname="tetraeder.svg"
   inkscape:version="0.92.4 (5da689c313, 2019-01-14)">
  <metadata
     id="metadata19">
    <rdf:RDF>
      <cc:Work
         rdf:about="">
        <dc:format>image/svg+xml</dc:format>
        <dc:type
           rdf:resource="http://purl.org/dc/dcmitype/StillImage" />
        <dc:title></dc:title>
      </cc:Work>
    </rdf:RDF>
  </metadata>
  <defs
     id="defs17" />
  <sodipodi:namedview
     pagecolor="#ffffff"
     bordercolor="#666666"
     borderopacity="1"
     objecttolerance="10"
     gridtolerance="10"
     guidetolerance="10"
     inkscape:pageopacity="0"
     inkscape:pageshadow="2"
     inkscape:window-width="1920"
     inkscape:window-height="1057"
     id="namedview15"
     showgrid="false"
     units="mm"
     inkscape:zoom="0.35534922"
     inkscape:cx="181.3318"
     inkscape:cy="94.871468"
     inkscape:window-x="-8"
     inkscape:window-y="-8"
     inkscape:window-maximized="1"
     inkscape:current-layer="svg13" />
  <g
     id="surface243"
     transform="matrix(1.550612,0,0,1.550612,25.690545,96.751921)">
    <path
       style="fill:none;stroke:#000000;stroke-width:0.2;stroke-linecap:square;stroke-linejoin:miter;stroke-miterlimit:3.25;stroke-opacity:1"
       d="M 179.5,6.894531 7.179688,305.35937 H 351.82031 Z m 0,0"
       id="path2"
       inkscape:connector-curvature="0" />
    <path
       style="fill:none;stroke:#000000;stroke-width:0.2;stroke-linecap:square;stroke-linejoin:miter;stroke-miterlimit:3.25;stroke-opacity:1"
       d="M 179.5,305.35937 93.339844,156.125 H 265.66016 Z m 0,0"
       id="path4"
       inkscape:connector-curvature="0" />
    <path
       style="fill:#000000;fill-opacity:1;fill-rule:evenodd;stroke:none"
       d="m 179.79687,265.5625 c 0,-0.0781 -0.0312,-0.15234 -0.0859,-0.21094 -0.0547,-0.0547 -0.13282,-0.0859 -0.21094,-0.0859 -0.0781,0 -0.15625,0.0312 -0.21094,0.0859 -0.0547,0.0586 -0.0859,0.13281 -0.0859,0.21094 0,0.082 0.0312,0.15625 0.0859,0.21094 0.0547,0.0586 0.13281,0.0898 0.21094,0.0898 0.0781,0 0.15625,-0.0312 0.21094,-0.0898 0.0547,-0.0547 0.0859,-0.12891 0.0859,-0.21094 z m 0,0"
       id="path6"
       inkscape:connector-curvature="0" />
    <path
       style="fill:#000000;fill-opacity:1;fill-rule:evenodd;stroke:none"
       d="m 128.10156,176.02344 c 0,-0.0781 -0.0312,-0.15625 -0.0859,-0.21094 -0.0547,-0.0547 -0.13281,-0.0859 -0.21093,-0.0859 -0.0781,0 -0.15625,0.0312 -0.21094,0.0859 -0.0586,0.0547 -0.0898,0.13281 -0.0898,0.21094 0,0.0781 0.0312,0.15625 0.0898,0.21093 0.0547,0.0586 0.13281,0.0898 0.21094,0.0898 0.0781,0 0.15625,-0.0312 0.21093,-0.0898 0.0547,-0.0547 0.0859,-0.13281 0.0859,-0.21093 z m 0,0"
       id="path8"
       inkscape:connector-curvature="0" />
    <path
       style="fill:#000000;fill-opacity:1;fill-rule:evenodd;stroke:none"
       d="m 231.49609,176.02344 c 0,-0.0781 -0.0312,-0.15625 -0.0898,-0.21094 -0.0547,-0.0547 -0.13281,-0.0859 -0.21094,-0.0859 -0.0781,0 -0.15625,0.0312 -0.21094,0.0859 -0.0547,0.0547 -0.0859,0.13281 -0.0859,0.21094 0,0.0781 0.0312,0.15625 0.0859,0.21093 0.0547,0.0586 0.13282,0.0898 0.21094,0.0898 0.0781,0 0.15625,-0.0312 0.21094,-0.0898 0.0586,-0.0547 0.0898,-0.13281 0.0898,-0.21093 z m 0,0"
       id="path10"
       inkscape:connector-curvature="0" />
  </g>
</svg>
